<?xml version="1.0" standalone="no"?>
<!DOCTYPE svg PUBLIC "-//W3C//DTD SVG 20010904//EN"
 "http://www.w3.org/TR/2001/REC-SVG-20010904/DTD/svg10.dtd">
<svg version="1.0" xmlns="http://www.w3.org/2000/svg"
 width="1600.000000pt" height="978.000000pt" viewBox="0 0 1600.000000 978.000000"
 preserveAspectRatio="xMidYMid meet">

<g transform="translate(0.000000,978.000000) scale(0.100000,-0.100000)"
fill="#000000" stroke="none">
<path d="M0 4890 l0 -4890 8000 0 8000 0 0 4890 0 4890 -8000 0 -8000 0 0
-4890z m2710 4610 l0 -60 -60 0 -60 0 0 60 0 60 60 0 60 0 0 -60z m12568 53
c-14 -3 -18 -15 -18 -53 0 -38 4 -50 18 -53 13 -4 11 -5 -5 -6 -21 -1 -23 3
-23 59 0 56 2 60 23 59 16 -1 18 -2 5 -6z m-1318 -7 c0 -2 -7 -7 -16 -10 -8
-3 -12 -2 -9 4 6 10 25 14 25 6z m640 -45 c0 -4 -7 -16 -16 -27 -14 -18 -15
-18 -4 4 9 19 8 29 -5 50 l-16 27 20 -24 c12 -13 21 -26 21 -30z m130 45 c0
-11 -19 -15 -25 -6 -3 5 1 10 9 10 9 0 16 -2 16 -4z m870 -6 c0 -5 -10 -10
-22 -10 -23 0 -22 0 3 -24 18 -16 34 -23 48 -19 11 3 18 9 15 14 -3 5 -10 7
-15 4 -5 -4 -9 -1 -9 5 0 6 10 10 23 8 17 -2 23 -11 25 -35 3 -29 0 -33 -22
-33 -14 0 -28 4 -31 10 -4 6 -13 5 -24 -2 -11 -7 -26 -8 -37 -3 -18 8 -17 9 4
12 28 5 28 10 0 33 -19 15 -20 20 -9 34 15 18 51 22 51 6z m100 0 c0 -5 -5
-10 -11 -10 -5 0 -7 5 -4 10 3 6 8 10 11 10 2 0 4 -4 4 -10z m-349 -62 c-19
-18 -23 -19 -18 -5 5 13 1 17 -18 17 -14 0 -25 5 -25 10 0 6 11 10 25 10 19 0
23 4 18 18 -5 13 -1 12 18 -5 l23 -23 -23 -22z m-1150 10 l-5 -33 -6 30 c-7
32 -3 48 9 41 4 -3 5 -20 2 -38z m693 -2 c1 -39 -11 -35 -14 4 -3 34 -1 44 6
37 4 -4 7 -22 8 -41z m-918 13 c3 -5 -2 -6 -11 -2 -10 3 -21 0 -26 -8 -7 -11
-9 -9 -9 8 0 16 5 20 20 16 11 -3 23 -9 26 -14z m81 -9 c1 -23 1 -23 -4 -2 -6
30 -38 25 -37 -5 0 -12 -3 -20 -8 -17 -22 14 4 57 32 52 8 -2 16 -14 17 -28z
m60 24 c-3 -3 -12 -4 -19 -1 -8 3 -5 6 6 6 11 1 17 -2 13 -5z m153 -4 c0 -5
-7 -7 -15 -4 -8 4 -15 8 -15 10 0 2 7 4 15 4 8 0 15 -4 15 -10z m54 2 c-7 -4
-14 -18 -17 -32 -4 -21 -4 -20 -6 8 -1 24 3 32 17 32 11 0 13 -3 6 -8z m66 -1
c0 -5 -9 -7 -20 -4 -16 4 -20 0 -21 -23 -1 -18 -3 -22 -6 -11 -7 27 4 47 27
47 11 0 20 -4 20 -9z m78 -14 c3 -13 -3 -17 -25 -16 -23 1 -24 2 -5 6 12 2 22
9 22 15 0 6 -9 8 -20 5 -11 -3 -17 -1 -14 4 9 15 38 6 42 -14z m172 19 c0 -3
-4 -8 -10 -11 -5 -3 -10 -1 -10 4 0 6 5 11 10 11 6 0 10 -2 10 -4z m77 -43
c-3 -10 -5 -2 -5 17 0 19 2 27 5 18 2 -10 2 -26 0 -35z m61 40 c-26 -6 -22
-23 5 -24 21 -1 21 -1 -3 -8 -14 -4 -27 -3 -28 1 -7 17 8 38 25 37 17 -1 17
-2 1 -6z m182 3 c0 -2 -9 -6 -20 -9 -11 -3 -18 -1 -14 4 5 9 34 13 34 5z m740
-32 c0 -21 -4 -33 -10 -29 -5 3 -10 19 -10 36 0 16 5 29 10 29 6 0 10 -16 10
-36z m53 29 c-7 -2 -13 -15 -13 -28 0 -13 -4 -27 -10 -30 -6 -4 -10 8 -10 29
0 31 3 36 23 35 12 0 16 -3 10 -6z m-1624 -35 c0 -13 -3 -17 -6 -10 -2 6 -11
12 -18 12 -7 0 -16 -6 -18 -12 -4 -10 -6 -10 -6 0 -1 10 22 25 47 31 1 1 2 -9
1 -21z m731 -4 c0 -2 -9 0 -20 6 -11 6 -20 13 -20 16 0 2 9 0 20 -6 11 -6 20
-13 20 -16z m110 16 c0 -5 -12 -10 -27 -9 l-28 1 25 8 c14 4 26 8 28 9 1 1 2
-3 2 -9z m-703 -6 c-3 -3 -12 -4 -19 -1 -8 3 -5 6 6 6 11 1 17 -2 13 -5z
m-13407 -143 c0 -14 -8 -21 -27 -23 -27 -3 -28 -5 -31 -75 -3 -64 -5 -73 -22
-73 -17 0 -19 9 -22 73 -3 70 -4 72 -30 75 -20 2 -28 9 -28 23 0 17 8 19 80
19 72 0 80 -2 80 -19z m178 -17 c33 -37 30 -88 -8 -126 -27 -27 -36 -30 -73
-25 -51 7 -77 36 -77 86 0 90 99 132 158 65z m186 30 c28 -11 18 -34 -15 -34
-51 0 -69 -16 -69 -59 0 -26 5 -41 16 -45 28 -11 54 -6 54 9 0 8 -9 15 -20 15
-14 0 -20 7 -20 21 0 18 5 20 43 17 l42 -3 1 -43 c2 -38 -1 -45 -25 -53 -34
-14 -98 -5 -121 16 -25 22 -33 65 -21 98 18 47 89 79 135 61z m207 -23 c66
-66 10 -178 -78 -156 -44 10 -73 44 -73 82 0 44 14 69 48 87 41 23 71 19 103
-13z m-1034 -33 c-3 -8 -6 -5 -6 6 -1 11 2 17 5 13 3 -3 4 -12 1 -19z m-17
-28 c9 5 19 5 27 -2 9 -7 17 -7 27 1 25 21 28 -5 5 -43 -27 -46 -62 -49 -84
-6 -19 37 -20 67 -2 52 8 -7 18 -7 27 -2z m2760 -365 c0 -43 1 -45 21 -35 16
9 26 8 45 -5 21 -13 24 -23 24 -76 0 -57 -1 -60 -22 -57 -20 3 -23 10 -26 56
-3 44 -6 53 -20 50 -12 -2 -18 -17 -22 -53 -4 -42 -8 -50 -25 -50 -19 0 -20 8
-23 108 l-3 107 26 0 c23 0 25 -3 25 -45z m170 0 c0 -42 2 -45 19 -35 28 14
38 13 61 -10 27 -27 26 -75 -3 -104 -19 -19 -34 -23 -73 -22 l-49 1 -3 108 -3
107 26 0 c23 0 25 -3 25 -45z m698 -62 l-3 -108 -50 -1 c-70 -1 -95 16 -95 66
0 55 22 75 78 70 19 -1 22 3 22 39 0 37 2 41 25 41 l26 0 -3 -107z m-1243 62
c19 -18 25 -35 25 -67 0 -73 -47 -113 -126 -106 l-39 3 -3 98 -3 97 61 0 c51
0 65 -4 85 -25z m166 -57 c5 -10 9 -40 7 -66 l-3 -47 -45 -1 c-60 -1 -82 11
-78 43 3 25 7 29 58 52 23 11 22 11 -12 7 -29 -4 -38 -1 -38 10 0 35 93 37
111 2z m122 23 c20 -2 3 -30 -20 -33 l-28 -3 30 -15 c39 -20 41 -58 4 -79 -32
-18 -79 -8 -79 17 0 15 6 18 30 14 38 -6 38 3 -1 23 -22 12 -29 22 -27 38 3
23 40 47 67 42 9 -2 19 -4 24 -4z m484 0 c22 -2 43 -33 43 -64 0 -38 -7 -50
-37 -66 -32 -16 -57 -14 -87 10 -55 43 -15 136 54 123 8 -1 20 -3 27 -3z m182
-35 c5 -17 9 -47 8 -66 l-3 -35 -52 -1 c-92 -2 -112 60 -29 90 l42 16 -37 -3
c-31 -2 -38 0 -38 14 0 13 10 19 33 21 51 5 65 -2 76 -36z m71 34 c12 -6 21
-7 25 0 7 12 35 1 35 -14 0 -6 -10 -16 -22 -21 -18 -8 -24 -21 -28 -55 -4 -37
-9 -45 -25 -45 -17 0 -20 8 -23 59 -4 83 2 95 38 76z m-3592 -128 c3 -31 2
-33 -25 -30 -17 2 -29 10 -31 21 -6 30 6 49 30 45 18 -2 24 -11 26 -36z m67
13 c0 -22 -31 -33 -47 -17 -17 17 -1 44 24 40 15 -2 23 -10 23 -23z m159 -1
c19 -7 21 -55 4 -72 -7 -7 -25 -12 -40 -12 -27 0 -28 2 -28 45 0 41 2 45 24
45 13 0 31 -3 40 -6z m176 -11 c0 -9 3 -13 7 -10 3 4 12 2 20 -4 15 -13 18
-59 3 -59 -5 0 -10 11 -10 25 0 14 -4 25 -10 25 -10 0 -14 -14 -11 -37 1 -7
-3 -13 -9 -13 -5 0 -10 20 -10 45 0 25 5 45 10 45 6 0 10 -7 10 -17z m70 7 c0
-5 7 -10 15 -10 7 0 18 -8 23 -17 9 -16 11 -16 27 0 20 20 27 21 43 5 32 -32
-2 -73 -41 -49 -14 9 -22 10 -30 2 -6 -6 -21 -11 -34 -11 -21 0 -23 5 -23 45
0 25 5 45 10 45 6 0 10 -4 10 -10z m310 -35 c0 -43 -1 -45 -29 -45 -45 0 -53
52 -10 65 10 4 19 11 19 16 0 5 5 9 10 9 6 0 10 -20 10 -45z m-480 6 c18 -35
13 -53 -17 -49 -34 4 -40 22 -11 36 19 9 20 11 5 11 -10 1 -15 6 -12 11 10 16
23 12 35 -9z m60 8 c0 -5 -4 -7 -10 -4 -15 9 -12 -4 5 -22 8 -8 13 -19 10 -24
-8 -12 -45 -12 -45 1 0 5 7 7 15 4 20 -8 19 6 -2 22 -16 12 -16 15 -3 24 19
13 30 13 30 -1z m294 -5 c14 -37 7 -54 -24 -54 -36 0 -41 26 -7 40 18 7 18 9
4 9 -10 1 -15 6 -12 11 9 15 32 12 39 -6z m39 -21 c-3 -18 -9 -33 -14 -33 -14
0 -11 58 4 63 16 6 15 7 10 -30z m-625 -15 c-2 -28 -7 -33 -28 -33 -21 0 -26
5 -28 33 -3 30 -1 32 28 32 29 0 31 -2 28 -32z m-70 -10 c-3 -25 -34 -36 -50
-20 -17 17 -1 42 27 42 22 0 26 -4 23 -22z m3109 -135 c-2 -16 -4 -3 -4 27 0
30 2 43 4 28 2 -16 2 -40 0 -55z m133 24 c0 -48 -2 -53 -24 -55 -34 -2 -52 22
-37 51 9 19 10 19 6 2 -2 -11 -1 -26 4 -34 13 -21 43 -5 41 21 -3 35 -1 68 5
68 3 0 5 -24 5 -53z m490 -4 c0 -32 -4 -53 -8 -46 -7 11 -4 103 4 103 2 0 4
-26 4 -57z m-1304 2 c9 -39 0 -30 -15 15 -6 19 -7 30 -2 25 5 -6 13 -23 17
-40z m39 -9 c-16 -42 -35 -61 -35 -36 0 6 4 10 8 10 5 0 14 18 21 41 7 23 15
39 18 36 3 -3 -3 -26 -12 -51z m1797 -8 c2 -21 1 -38 -3 -38 -9 0 -18 72 -11
85 7 11 9 3 14 -47z m-1755 -15 c-3 -10 -5 -2 -5 17 0 19 2 27 5 18 2 -10 2
-26 0 -35z m40 32 c0 -8 -4 -12 -9 -9 -5 3 -6 10 -3 15 9 13 12 11 12 -6z
m102 -22 c-1 -24 -3 -29 -6 -15 -2 12 -11 22 -19 22 -17 0 -19 -26 -1 -33 7
-4 6 -6 -4 -6 -9 -1 -19 5 -22 13 -6 16 11 36 30 36 7 0 13 5 13 10 0 6 2 10
5 10 3 0 4 -17 4 -37z m89 -4 c-3 -25 -33 -38 -50 -21 -6 6 0 8 18 4 25 -5 26
-3 22 27 -3 19 -1 28 5 22 5 -5 7 -19 5 -32z m132 2 c0 -25 -6 -43 -17 -52
-16 -13 -17 -12 -4 4 12 15 11 17 -6 17 -23 0 -43 19 -42 40 0 9 4 6 10 -8 13
-33 44 -25 44 11 -1 15 3 27 7 27 4 0 8 -17 8 -39z m34 28 c-5 -8 1 -10 20 -7
14 3 26 1 26 -3 0 -5 -11 -9 -25 -9 -31 0 -33 -17 -2 -30 22 -10 22 -10 -3 -7
-15 1 -26 9 -28 20 -4 20 4 47 13 47 4 0 3 -5 -1 -11z m78 -19 c-2 -16 -6 -30
-8 -30 -2 0 -4 14 -4 30 0 17 4 30 8 30 5 0 7 -13 4 -30z m88 11 c0 -11 -6
-18 -16 -17 -9 0 -19 -5 -22 -13 -3 -10 1 -12 17 -8 11 3 21 1 21 -4 0 -5 -11
-9 -25 -9 -31 0 -35 35 -5 45 11 3 20 11 20 16 0 5 2 9 5 9 3 0 5 -8 5 -19z
m250 -20 c0 -24 -4 -28 -27 -27 -34 1 -37 26 -6 42 13 6 20 14 15 19 -4 5 -1
5 6 1 6 -4 12 -20 12 -35z m152 -19 c9 -2 19 5 22 15 4 15 5 15 3 -2 -3 -23
-36 -33 -48 -13 -5 7 -8 24 -8 38 1 23 2 22 8 -5 3 -16 14 -31 23 -33z m108
20 c0 -22 -5 -28 -25 -30 -13 -1 -26 2 -30 7 -3 5 3 7 14 4 23 -6 39 16 20 28
-11 7 -11 9 -1 9 7 0 10 5 6 12 -4 7 -3 8 4 4 7 -4 12 -19 12 -34z m177 -14
c-2 -13 -4 -5 -4 17 -1 22 1 32 4 23 2 -10 2 -28 0 -40z m45 17 c-2 -19 -6
-35 -8 -35 -2 0 -4 16 -4 35 0 19 4 35 8 35 4 0 6 -16 4 -35z m46 -11 c-3 -27
-4 -26 -9 8 -3 22 -1 34 4 29 5 -5 7 -21 5 -37z m29 -6 c-2 -13 -4 -5 -4 17
-1 22 1 32 4 23 2 -10 2 -28 0 -40z m153 13 c0 -24 -4 -28 -27 -27 -34 1 -37
26 -6 42 13 6 20 14 15 19 -4 5 -1 5 6 1 6 -4 12 -20 12 -35z m116 30 c-3 -4
-10 -21 -16 -37 -9 -23 -13 -25 -20 -14 -6 8 -10 20 -10 25 0 6 4 4 8 -3 6 -9
12 -6 20 13 6 14 14 25 17 25 4 0 4 -4 1 -9z m158 -2 c-5 -8 1 -10 20 -7 14 3
26 1 26 -3 0 -5 -11 -9 -25 -9 -31 0 -33 -17 -2 -30 22 -10 22 -10 -3 -7 -15
1 -26 9 -28 20 -4 20 4 47 13 47 4 0 3 -5 -1 -11z m78 -24 c-2 -19 -6 -35 -8
-35 -2 0 -4 16 -4 35 0 19 4 35 8 35 4 0 6 -16 4 -35z m58 -1 c0 -19 -4 -33
-8 -30 -12 7 -14 66 -2 66 5 0 10 -16 10 -36z m32 1 c-2 -19 -6 -35 -8 -35 -2
0 -4 16 -4 35 0 19 4 35 8 35 4 0 6 -16 4 -35z m46 -11 c-3 -27 -4 -26 -9 8
-3 22 -1 34 4 29 5 -5 7 -21 5 -37z m82 7 c0 -24 -4 -28 -27 -27 -38 1 -44 33
-9 42 15 3 23 11 19 17 -3 6 -1 7 5 3 7 -4 12 -20 12 -35z m32 4 c-2 -19 -6
-35 -8 -35 -2 0 -4 16 -4 35 0 19 4 35 8 35 4 0 6 -16 4 -35z m45 -17 c-2 -13
-4 -5 -4 17 -1 22 1 32 4 23 2 -10 2 -28 0 -40z m83 16 c0 -33 -2 -35 -27 -32
-34 4 -37 29 -5 43 12 5 22 13 22 17 0 5 2 8 5 8 3 0 5 -16 5 -36z m-1342 -14
c-2 -8 -12 -16 -23 -17 -16 -1 -16 -1 -2 3 21 7 22 23 2 30 -8 4 -15 10 -15
15 0 5 9 4 20 -3 11 -7 19 -20 18 -28z m802 30 c0 -5 -11 -10 -25 -10 -18 0
-23 -4 -19 -15 4 -8 14 -15 23 -16 10 0 12 -2 3 -6 -15 -6 -42 14 -42 33 0 7
12 15 28 17 15 2 28 5 30 6 1 0 2 -3 2 -9z m-1644 -39 c-4 -6 -15 -10 -24 -10
-15 1 -14 2 1 6 12 3 16 10 12 21 -5 13 -3 14 6 5 6 -6 8 -16 5 -22z m1103
-10 c-6 -2 -18 4 -27 13 -15 15 -15 15 10 4 15 -7 23 -15 17 -17z m266 1 c-7
-8 -35 7 -35 18 0 6 7 6 20 -2 10 -7 17 -14 15 -16z m-3929 -87 c7 -18 -13
-45 -33 -45 -17 0 -27 24 -19 45 7 20 45 19 52 0z m34 -15 c0 -10 -4 -21 -8
-24 -5 -3 -9 8 -9 24 0 16 4 27 9 24 4 -3 8 -14 8 -24z m180 11 c0 -5 -9 -7
-20 -4 -27 7 -49 -39 -30 -62 8 -9 22 -14 32 -12 10 3 18 1 18 -4 0 -12 -27
-11 -51 1 -25 14 -26 65 -1 79 21 13 52 14 52 2z m27 -68 c-2 -16 -4 -3 -4 27
0 30 2 43 4 28 2 -16 2 -40 0 -55z m221 36 c-6 -4 -8 -19 -6 -33 3 -17 1 -25
-6 -23 -6 2 -13 18 -17 35 -7 36 7 57 26 39 8 -8 9 -14 3 -18z m-191 -41 c-2
-13 -4 -5 -4 17 -1 22 1 32 4 23 2 -10 2 -28 0 -40z m73 33 c9 -17 6 -20 -18
-23 l-27 -4 25 -11 c24 -11 24 -12 3 -12 -29 -1 -49 34 -32 55 16 20 36 18 49
-5z m74 3 c9 -24 7 -44 -4 -44 -5 0 -10 12 -10 26 0 35 -23 26 -31 -12 -6 -27
-7 -27 -8 9 -1 33 2 37 23 37 13 0 27 -7 30 -16z m112 5 c4 -8 9 -8 17 0 6 6
18 11 27 11 13 0 13 -1 0 -10 -13 -8 -12 -11 4 -23 11 -8 16 -19 12 -25 -9
-14 -46 -16 -46 -2 0 5 7 7 15 4 8 -4 15 -2 15 4 0 14 -22 21 -53 15 -28 -6
-36 -19 -14 -26 8 -3 7 -4 -2 -3 -24 2 -37 32 -22 50 16 19 37 21 47 5z m-522
-35 c9 -8 13 -21 9 -27 -5 -8 -9 -6 -11 6 -2 12 -13 17 -37 17 -24 0 -35 -5
-38 -17 -4 -14 -5 -13 -6 4 -2 34 55 46 83 17z m46 -14 c0 -11 -2 -20 -4 -20
-2 0 -6 9 -9 20 -3 11 -1 20 4 20 5 0 9 -9 9 -20z m-43 -239 c13 11 18 10 29
-6 28 -38 -9 -115 -56 -115 -41 0 -74 84 -45 114 13 12 21 14 36 5 15 -8 24
-7 36 2z m191 -23 c14 -14 -2 -48 -23 -48 -8 0 -15 -7 -15 -15 0 -8 -4 -15 -8
-15 -9 0 -13 55 -6 78 4 15 36 16 52 0z m103 -5 c4 -45 2 -72 -6 -70 -13 5
-19 77 -6 77 6 0 11 -3 12 -7z m-33 -30 c2 -8 -5 -13 -17 -13 -25 0 -28 -17
-3 -23 12 -4 11 -5 -6 -6 -25 -1 -38 20 -28 45 7 18 47 15 54 -3z m87 8 c-18
-7 -18 -8 -1 -18 23 -13 12 -33 -17 -32 -17 1 -18 2 -4 6 21 6 22 19 1 27 -21
8 -8 26 19 25 21 0 21 -1 2 -8z m2320 -143 c7 -28 9 -30 20 -15 14 20 75 23
75 5 0 -10 2 -10 8 -1 5 8 35 11 86 11 63 -2 81 2 91 15 19 27 25 20 25 -28
l0 -45 -45 2 c-36 1 -45 5 -47 22 -4 28 -22 27 -26 -1 -4 -27 -21 -31 -23 -5
-1 16 -2 16 -6 0 -3 -11 -14 -18 -28 -18 -14 0 -25 7 -28 18 -4 14 -5 13 -6
-3 0 -12 -6 -26 -13 -33 -15 -15 -58 -16 -58 -1 0 6 7 9 15 6 8 -4 17 -2 20 3
4 6 -9 10 -29 10 -19 0 -36 6 -39 13 -3 9 -9 9 -27 -1 -30 -18 -32 -12 -13 36
19 50 39 54 48 10z m858 12 c3 -11 12 -20 21 -20 9 0 16 8 16 20 0 11 5 20 10
20 6 0 10 -20 10 -45 0 -25 -4 -45 -10 -45 -5 0 -10 9 -10 20 0 13 -7 20 -20
20 -13 0 -20 -7 -20 -20 0 -11 -4 -20 -10 -20 -5 0 -10 20 -10 45 0 46 14 61
23 25z m167 10 c0 -5 -4 -10 -10 -10 -5 0 -10 5 -10 10 0 6 5 10 10 10 6 0 10
-4 10 -10z m2305 0 c-4 -6 -11 -8 -16 -5 -5 4 -9 -1 -9 -9 0 -9 8 -17 18 -17
16 -1 16 -2 0 -6 -10 -2 -18 -13 -18 -24 0 -10 -7 -19 -15 -19 -11 0 -15 12
-15 45 0 44 1 45 31 45 18 0 28 -4 24 -10z m725 -10 c0 -11 7 -20 15 -20 8 0
15 9 15 20 0 11 5 20 10 20 6 0 10 -20 10 -45 0 -25 -4 -45 -10 -45 -5 0 -10
9 -10 20 0 11 -7 20 -15 20 -8 0 -15 -9 -15 -20 0 -11 -4 -20 -10 -20 -5 0
-10 20 -10 45 0 25 5 45 10 45 6 0 10 -9 10 -20z m160 10 c0 -5 -2 -10 -4 -10
-3 0 -8 5 -11 10 -3 6 -1 10 4 10 6 0 11 -4 11 -10z m2470 0 c0 -5 -11 -10
-25 -10 -20 0 -25 -5 -25 -25 0 -24 9 -30 38 -26 6 1 12 -3 12 -9 0 -11 -29
-13 -54 -4 -19 7 -21 55 -4 72 15 15 58 16 58 2z m30 -35 c0 -25 -4 -45 -10
-45 -5 0 -10 20 -10 45 0 25 5 45 10 45 6 0 10 -20 10 -45z m30 35 c0 -5 -4
-10 -10 -10 -5 0 -10 5 -10 10 0 6 5 10 10 10 6 0 10 -4 10 -10z m409 -31 c13
-42 7 -65 -9 -39 -8 13 -13 13 -31 2 -29 -19 -32 -11 -13 37 21 52 38 52 53 0z
m81 31 c0 -5 -4 -10 -10 -10 -5 0 -10 5 -10 10 0 6 5 10 10 10 6 0 10 -4 10
-10z m2783 -32 l15 -43 1 43 c1 40 21 63 21 23 0 -17 5 -19 35 -14 34 5 35 4
35 -25 0 -31 -1 -32 -47 -31 -27 1 -58 6 -71 12 -16 8 -26 7 -34 -1 -23 -23
-27 -12 -11 33 8 25 21 45 28 45 7 0 20 -19 28 -42z m428 15 c0 -16 3 -22 6
-15 5 13 49 17 57 4 3 -5 2 -18 -1 -30 -6 -24 -53 -32 -53 -9 0 9 -2 9 -9 -1
-5 -8 -21 -12 -37 -10 -40 4 -47 44 -10 58 14 5 26 14 26 20 0 24 20 7 21 -17z
m159 18 c-8 -6 -18 -7 -22 -5 -4 3 -8 -2 -8 -11 0 -14 7 -15 48 -9 26 4 50 12
55 18 11 17 25 -10 20 -42 l-3 -27 10 27 c11 25 15 26 81 26 l69 0 0 -44 c0
-24 -4 -44 -10 -44 -5 0 -10 7 -10 15 0 16 -13 18 -102 16 -55 -1 -58 0 -58
24 0 19 -5 25 -22 25 -21 0 -21 -1 -3 -13 28 -21 9 -37 -46 -37 l-49 0 0 45
c0 44 1 45 33 45 23 0 28 -3 17 -9z m-9942 -14 c7 -8 33 -11 74 -10 36 1 57
-1 49 -6 -9 -6 -10 -11 -2 -15 6 -4 11 -14 11 -21 0 -11 -17 -14 -77 -12 -73
2 -77 3 -83 27 -11 43 6 64 28 37z m1902 -3 c0 -8 -5 -12 -10 -9 -6 4 -8 11
-5 16 9 14 15 11 15 -7z m55 6 c3 -5 1 -10 -4 -10 -6 0 -11 5 -11 10 0 6 2 10
4 10 3 0 8 -4 11 -10z m805 0 c0 -5 9 -10 20 -10 13 0 20 -7 20 -19 0 -11 5
-23 10 -26 6 -4 10 5 10 19 0 14 5 26 10 26 6 0 10 -14 10 -30 0 -30 -1 -30
-47 -28 -41 3 -48 6 -53 28 -4 14 -5 31 -2 38 5 14 22 16 22 2z m483 -26 c-2
-27 -2 -27 7 -6 11 27 64 31 74 6 10 -27 -13 -44 -59 -44 -39 0 -43 2 -47 28
-5 36 1 54 16 49 6 -2 10 -17 9 -33z m2027 25 c11 -8 12 -12 3 -16 -18 -7 -16
-33 1 -33 16 0 29 -27 20 -41 -3 -5 -12 -9 -20 -9 -8 0 -14 -4 -14 -9 0 -5
-11 -4 -24 2 -25 12 -25 12 -4 20 l21 8 -21 20 c-27 24 -28 38 -4 55 21 16 23
16 42 3z m989 -3 c9 -11 9 -15 0 -18 -8 -3 -10 -11 -4 -24 7 -18 8 -17 14 6 6
22 12 25 61 27 33 1 49 -1 41 -6 -9 -6 -10 -11 -2 -15 20 -13 12 -36 -11 -35
-13 0 -17 3 -10 6 6 2 10 9 6 14 -8 14 -24 11 -24 -6 0 -12 -11 -15 -47 -13
-41 3 -48 6 -54 28 l-7 25 -1 -27 c-1 -35 -21 -37 -21 -3 0 14 -4 25 -10 25
-5 0 -10 -11 -10 -25 0 -14 -4 -25 -10 -25 -5 0 -10 14 -10 30 0 28 3 30 35
30 19 0 35 5 35 10 0 14 16 12 29 -4z m272 2 c1 -7 0 -23 -1 -35 -1 -13 3 -23
9 -23 6 0 11 11 11 25 0 20 5 25 25 25 17 0 25 -6 25 -17 1 -17 1 -17 14 0 20
26 26 21 15 -13 -14 -37 -32 -38 -46 -2 l-11 27 -1 -27 c-1 -24 -5 -28 -30
-28 -24 0 -29 5 -33 28 -2 16 -2 34 0 40 5 16 22 15 23 0z m3021 1 c2 -6 30
-11 63 -11 33 -1 54 -3 47 -6 -10 -3 -9 -8 4 -23 23 -25 6 -31 -77 -27 -58 3
-64 5 -67 26 -5 31 -32 29 -32 -3 0 -14 -4 -25 -10 -25 -5 0 -10 14 -10 30 0
25 4 30 24 30 14 0 28 5 31 10 8 13 22 13 27 -1z m2412 -39 c35 -65 30 -80
-28 -80 -52 0 -76 8 -76 24 0 16 58 106 68 106 5 0 21 -23 36 -50z m-12256 -2
c3 -25 0 -28 -27 -28 -37 0 -43 25 -8 36 l22 8 -25 7 c-23 7 -23 8 5 6 25 -2
31 -7 33 -29z m110 0 c2 -16 -1 -28 -7 -28 -6 0 -11 9 -11 19 0 11 -4 23 -10
26 -6 4 -10 -5 -10 -19 0 -14 -4 -26 -10 -26 -5 0 -10 9 -10 19 0 21 -19 40
-21 22 -3 -26 -4 -30 -11 -37 -5 -4 -8 7 -8 25 0 32 0 32 48 29 43 -3 47 -5
50 -30z m140 0 c2 -16 -1 -28 -7 -28 -6 0 -11 11 -11 25 0 14 -4 25 -10 25 -5
0 -12 -11 -16 -25 -6 -26 -23 -34 -25 -12 0 10 -2 10 -6 0 -7 -18 -42 -16 -49
2 -13 33 3 44 63 42 55 -2 58 -3 61 -29z m371 15 c10 -17 10 -17 11 0 0 9 5
17 10 17 17 0 12 -80 -5 -87 -9 -3 -19 -2 -23 2 -4 4 -1 10 6 12 6 3 12 12 12
21 0 12 -3 13 -12 4 -30 -30 -79 -5 -64 33 8 21 53 19 65 -2z m99 -13 c-2 -24
-7 -30 -25 -30 -13 0 -26 7 -29 15 -10 25 4 45 31 45 22 0 25 -4 23 -30z
m2300 -2 c3 -25 0 -28 -27 -28 -34 0 -44 26 -15 37 13 5 13 8 2 15 -9 6 -5 8
12 6 19 -2 26 -10 28 -30z m154 20 c-7 -7 -12 -20 -12 -30 0 -10 -4 -18 -10
-18 -5 0 -10 14 -10 30 0 24 4 30 22 30 17 0 19 -3 10 -12z m69 -5 c1 -17 2
-17 6 -1 4 15 17 18 89 17 l84 -2 0 -28 c0 -27 -2 -29 -40 -27 -31 1 -40 5
-40 19 0 10 -4 21 -10 24 -6 4 -10 -5 -10 -19 0 -16 -6 -26 -15 -26 -9 0 -15
10 -15 26 0 14 -4 23 -10 19 -5 -3 -10 -15 -10 -26 0 -16 -7 -19 -39 -19 -47
0 -59 13 -30 33 19 14 20 15 2 20 -12 3 -9 5 10 6 19 1 27 -4 28 -16z m253 1
c10 -27 7 -44 -9 -44 -9 0 -15 10 -15 26 0 14 -4 23 -10 19 -5 -3 -10 -15 -10
-26 0 -10 -4 -19 -10 -19 -5 0 -10 14 -10 30 0 26 3 30 29 30 17 0 31 -6 35
-16z m317 4 c0 -10 2 -10 6 0 11 27 24 9 21 -30 -2 -34 -7 -44 -23 -46 -16 -3
-18 -1 -7 9 6 7 12 20 11 29 0 10 -2 11 -6 3 -6 -17 -48 -16 -62 1 -18 22 -2
46 30 46 16 0 29 -6 30 -12z m102 0 c8 -26 -5 -48 -29 -48 -26 0 -40 20 -30
45 7 18 53 20 59 3z m2457 2 c0 -6 7 -6 19 1 26 17 51 4 51 -26 0 -19 -5 -25
-23 -25 -13 0 -28 5 -35 12 -9 9 -12 9 -12 0 0 -7 -4 -12 -10 -12 -5 0 -10 14
-10 30 0 17 5 30 10 30 6 0 10 -5 10 -10z m628 -2 c9 -9 12 -9 12 0 0 7 10 12
23 12 15 0 18 -3 9 -9 -10 -6 -10 -10 2 -21 9 -7 13 -16 10 -21 -7 -13 -44
-11 -44 2 0 5 5 7 10 4 6 -3 10 -1 10 4 0 17 -27 13 -34 -4 -3 -8 -17 -15 -31
-15 -27 0 -41 20 -31 45 7 18 47 20 64 3z m3512 -14 c0 -14 4 -23 10 -19 6 3
10 14 10 24 0 14 8 18 43 17 38 -1 42 -4 45 -27 3 -26 2 -27 -62 -27 l-66 -1
0 30 c0 16 5 29 10 29 6 0 10 -12 10 -26z m-8272 -81 c-16 -2 -40 -2 -55 0
-16 2 -3 4 27 4 30 0 43 -2 28 -4z m-5247 -50 c6 -6 9 -32 7 -59 l-3 -49 -60
0 -60 0 -3 48 c-2 27 2 55 8 62 13 15 95 14 111 -2z m157 -30 c5 -16 13 -36
17 -45 4 -11 3 -18 -4 -18 -6 0 -11 7 -11 15 0 21 -37 19 -49 -2 -16 -27 -13
3 3 42 18 42 31 44 44 8z m312 -18 c0 -43 -1 -45 -29 -45 -21 0 -32 6 -36 20
-7 23 10 50 31 50 8 0 14 5 14 10 0 6 5 10 10 10 6 0 10 -20 10 -45z m-222
-13 c4 -39 -12 -62 -42 -61 -19 0 -19 1 4 11 24 11 24 12 3 15 -44 8 -34 77
10 71 17 -2 23 -11 25 -36z m68 23 c6 -14 8 -14 18 1 21 28 51 14 53 -26 l2
-35 -10 33 c-11 36 -29 34 -29 -4 0 -13 -4 -24 -10 -24 -5 0 -10 7 -10 15 0 9
-9 15 -25 15 -31 0 -33 -17 -2 -23 15 -4 12 -5 -8 -4 -20 1 -31 8 -33 20 -7
36 42 65 54 32z m214 -21 c0 -31 -3 -35 -22 -32 -29 4 -35 28 -9 35 11 3 18 9
15 14 -3 5 -10 7 -15 4 -5 -4 -9 -1 -9 4 0 6 9 11 20 11 16 0 20 -7 20 -36z
m5613 -58 c21 -16 22 -36 2 -36 -22 0 -18 -27 5 -40 53 -28 0 -113 -55 -88
-31 14 -35 49 -5 41 14 -4 20 0 20 10 0 9 -9 21 -20 27 -28 15 -27 63 3 83 27
19 28 20 50 3z m-3463 -25 c5 -11 10 -38 10 -60 0 -69 -56 -105 -95 -61 -20
23 -24 85 -6 118 16 29 76 31 91 3z m3348 7 c16 -16 15 -43 -3 -61 -13 -13
-12 -18 5 -40 25 -31 25 -47 2 -47 -10 0 -26 14 -36 30 -20 34 -36 31 -36 -6
0 -19 -5 -25 -17 -22 -15 3 -18 16 -21 81 l-3 77 49 0 c26 0 53 -5 60 -12z
m323 -5 c8 -9 14 -36 14 -60 0 -35 -5 -49 -24 -64 -30 -24 -46 -24 -71 1 -22
22 -27 88 -10 121 13 24 72 26 91 2z m190 0 c8 -9 14 -36 14 -60 0 -35 -5 -49
-24 -64 -30 -24 -46 -24 -71 1 -25 25 -28 101 -4 124 20 21 68 20 85 -1z m127
5 c5 -7 13 -27 16 -44 15 -68 -39 -123 -89 -90 -21 14 -25 24 -25 66 0 31 6
54 16 64 19 19 68 21 82 4z m2670 -65 c-3 -65 -6 -78 -20 -81 -15 -3 -18 5
-18 52 0 49 -2 56 -20 56 -11 0 -20 4 -20 9 0 14 41 41 63 41 16 0 18 -8 15
-77z m140 65 c7 -7 12 -20 12 -30 0 -28 14 -21 27 12 9 25 17 30 45 30 46 0
58 -15 58 -72 0 -74 -48 -111 -92 -71 -10 9 -18 24 -18 35 0 10 -4 18 -10 18
-5 0 -10 -9 -10 -19 0 -20 -35 -51 -57 -51 -27 0 -53 39 -53 81 0 58 14 79 53
79 18 0 38 -5 45 -12z m3200 -65 c-3 -70 -5 -78 -23 -78 -17 0 -20 8 -23 53
-2 37 -7 52 -18 52 -22 0 -17 26 9 38 52 25 58 19 55 -65z m-6262 -69 c-3 -9
-6 -20 -6 -25 0 -5 -7 -9 -15 -9 -15 0 -21 31 -8 43 13 14 35 7 29 -9z m-6506
-54 c0 -5 -4 -10 -10 -10 -15 0 -12 -36 5 -50 8 -7 22 -10 30 -6 18 7 20 53 3
59 -7 2 -10 8 -6 12 13 14 28 -7 28 -41 0 -21 -6 -37 -15 -40 -19 -8 -9 -24
15 -24 21 0 31 20 23 49 -4 15 -1 21 11 21 20 0 20 -11 2 -55 -19 -44 -39 -44
-82 -2 -32 30 -45 73 -27 90 10 10 23 8 23 -3z m253 -55 c9 -25 12 -45 6 -45
-5 0 -9 5 -9 10 0 14 -33 12 -49 -2 -11 -11 -12 -8 -6 12 25 84 37 89 58 25z
m277 -1 c0 -45 0 -45 -32 -42 -28 2 -33 7 -33 28 0 18 6 26 23 28 12 2 22 10
22 18 0 8 5 14 10 14 6 0 10 -21 10 -46z m-228 24 c6 -17 -3 -68 -12 -68 -9 0
-18 51 -12 68 2 7 7 12 12 12 5 0 10 -5 12 -12z m550 0 c6 -17 -3 -68 -12 -68
-9 0 -18 51 -12 68 2 7 7 12 12 12 5 0 10 -5 12 -12z m-474 -30 c2 -13 -3 -18
-20 -19 -17 -1 -18 -3 -5 -6 9 -2 15 -9 12 -14 -9 -14 -45 9 -45 30 0 10 3 21
7 25 13 13 48 1 51 -16z m70 -10 c2 -16 -1 -28 -7 -28 -6 0 -11 11 -11 25 0
14 -4 25 -10 25 -5 0 -10 -11 -10 -25 0 -14 -4 -25 -10 -25 -5 0 -10 14 -10
31 0 27 3 30 28 27 21 -2 28 -9 30 -30z m112 2 c0 -16 -4 -30 -10 -30 -5 0
-10 14 -10 30 0 17 5 30 10 30 6 0 10 -13 10 -30z m108 -2 c2 -16 -1 -28 -7
-28 -6 0 -11 11 -11 25 0 14 -4 25 -10 25 -5 0 -10 -11 -10 -25 0 -14 -4 -25
-10 -25 -5 0 -10 12 -10 27 0 29 -15 22 -23 -12 -3 -13 -5 -9 -6 12 -1 32 0
33 42 30 38 -2 42 -5 45 -29z m70 9 c2 -12 -3 -17 -20 -18 -21 0 -21 -1 -4 -8
13 -5 16 -10 9 -14 -11 -7 -43 17 -43 32 0 14 25 32 40 29 8 -2 16 -11 18 -21z
m71 -9 c-1 -30 -2 -30 -8 -9 -9 34 -31 39 -31 7 0 -14 -4 -26 -10 -26 -5 0
-10 14 -10 30 0 27 3 30 30 30 27 0 30 -3 29 -32z m120 18 c17 -20 2 -46 -25
-46 -26 0 -40 20 -30 45 7 19 40 20 55 1z m46 4 c-18 -7 -19 -8 -2 -15 25 -10
21 -35 -5 -34 -21 0 -21 1 -4 8 18 7 18 8 3 14 -25 10 -21 37 6 36 21 0 21 -1
2 -9z m5130 -40 c3 -5 1 -10 -4 -10 -6 0 -11 5 -11 10 0 6 2 10 4 10 3 0 8 -4
11 -10z m-75 -30 c4 0 11 -7 14 -16 5 -14 4 -15 -8 -5 -12 10 -15 8 -19 -11
-2 -13 -4 -3 -4 22 -1 25 1 37 4 28 2 -10 8 -18 13 -18z m142 -4 c-3 -23 1
-36 10 -39 9 -3 9 -4 -2 -3 -16 1 -25 38 -16 62 9 24 12 16 8 -20z m118 -27
c-13 -24 -24 -24 -41 -1 -13 16 -12 16 4 3 16 -13 20 -13 27 0 5 7 7 25 4 39
-4 25 -4 25 6 2 7 -16 7 -30 0 -43z m398 15 c-2 -17 -9 -29 -18 -30 -11 -1
-11 0 -2 3 9 3 13 16 10 39 -2 19 0 30 5 25 5 -5 7 -21 5 -37z m2679 -1 c-3
-10 -5 -2 -5 17 0 19 2 27 5 18 2 -10 2 -26 0 -35z m583 7 c0 -33 -3 -40 -19
-40 -11 0 -22 4 -25 9 -4 5 3 7 14 4 17 -5 20 0 20 31 0 20 2 36 5 36 3 0 5
-18 5 -40z m310 0 c0 -33 -3 -40 -19 -40 -11 0 -22 4 -25 9 -4 5 3 7 15 4 16
-5 20 -1 19 13 -3 28 -1 54 5 54 3 0 5 -18 5 -40z m2427 18 c-3 -8 -6 -5 -6 6
-1 11 2 17 5 13 3 -3 4 -12 1 -19z m41 -3 c-3 -3 -9 2 -12 12 -6 14 -5 15 5 6
7 -7 10 -15 7 -18z m172 -15 c0 -36 -3 -40 -24 -40 -13 0 -27 7 -30 16 -5 14
-4 15 8 5 17 -14 37 -6 35 12 -2 21 1 47 6 47 3 0 5 -18 5 -40z m660 0 c0 -33
-3 -40 -19 -40 -11 0 -22 4 -25 9 -4 5 3 7 14 4 17 -5 20 0 20 31 0 20 2 36 5
36 3 0 5 -18 5 -40z m-3867 -4 c-4 -20 0 -25 21 -29 26 -4 26 -4 -1 -3 -24 1
-28 6 -31 35 -2 19 1 31 6 27 5 -3 7 -17 5 -30z m401 -6 c1 -16 -2 -30 -5 -30
-8 0 -17 58 -11 65 9 9 15 -4 16 -35z m2900 0 c1 -16 -2 -30 -6 -30 -5 0 -8
17 -8 37 0 43 13 37 14 -7z m-10202 2 c-24 -4 -29 -18 -9 -25 7 -2 6 -3 -3 -3
-8 1 -16 11 -18 24 -3 17 0 21 14 15 13 -5 15 -3 9 8 -7 11 -5 11 10 -1 18
-14 18 -15 -3 -18z m98 24 c0 -11 -19 -15 -25 -6 -3 5 1 10 9 10 9 0 16 -2 16
-4z m3210 -11 c7 -9 8 -15 2 -15 -5 0 -12 7 -16 15 -3 8 -4 15 -2 15 2 0 9 -7
16 -15z m3709 -1 c-11 -14 -10 -18 6 -30 17 -13 17 -14 2 -14 -23 0 -33 26
-17 45 7 8 15 15 17 15 3 0 -1 -7 -8 -16z m3221 1 c-14 -17 -3 -38 17 -31 8 3
11 1 8 -4 -9 -15 -35 -12 -41 5 -6 14 11 45 23 45 3 0 0 -7 -7 -15z m437 -29
c-8 -20 -43 -21 -51 -1 -4 12 -2 13 14 3 26 -16 37 -2 21 25 -13 21 -12 21 4
5 10 -9 15 -23 12 -32z m251 3 c-3 -20 -5 -19 -9 9 -3 20 -2 29 4 23 5 -5 7
-19 5 -32z m-10448 27 c0 -3 -4 -8 -10 -11 -5 -3 -10 -1 -10 4 0 6 5 11 10 11
6 0 10 -2 10 -4z m90 -27 c0 -12 -7 -19 -19 -19 -28 0 -37 21 -16 36 22 16 35
10 35 -17z m3107 -6 c-3 -10 -5 -4 -5 12 0 17 2 24 5 18 2 -7 2 -21 0 -30z
m403 12 c0 -18 -5 -25 -20 -25 -25 0 -26 25 -2 39 23 14 22 14 22 -14z m2783
7 c-26 -4 -30 -18 -8 -25 11 -4 10 -4 -2 -3 -24 2 -29 33 -6 38 10 3 23 2 28
-1 6 -3 0 -7 -12 -9z m3099 -7 c-2 -14 -6 -25 -8 -25 -2 0 -4 11 -4 25 0 14 4
25 9 25 4 0 6 -11 3 -25z m448 0 c0 -18 -5 -25 -20 -25 -25 0 -26 25 -2 39 23
14 22 14 22 -14z m120 0 c0 -18 -5 -25 -20 -25 -25 0 -26 25 -2 39 23 14 22
14 22 -14z m528 -6 c-3 -8 -7 -3 -11 10 -4 17 -3 21 5 13 5 -5 8 -16 6 -23z
m19 -6 c-3 -10 -5 -4 -5 12 0 17 2 24 5 18 2 -7 2 -21 0 -30z m30 0 c-3 -10
-5 -4 -5 12 0 17 2 24 5 18 2 -7 2 -21 0 -30z m97 22 c-4 -9 2 -18 17 -24 23
-9 23 -10 3 -10 -22 -1 -39 23 -28 40 8 14 14 10 8 -6z m-11149 -13 c-3 -3
-11 0 -18 7 -9 10 -8 11 6 5 10 -3 15 -9 12 -12z m83 11 c-10 -2 -18 -9 -18
-14 0 -6 9 -7 20 -4 11 4 20 2 20 -4 0 -6 -11 -11 -25 -11 -14 0 -25 6 -25 13
0 18 10 27 29 26 13 -1 13 -2 -1 -6z m140 0 c-10 -2 -18 -8 -18 -13 0 -5 8
-11 18 -14 13 -4 13 -4 -3 -3 -30 3 -33 37 -3 36 17 -1 18 -3 6 -6z m150 0
c-10 -2 -18 -9 -18 -15 0 -5 7 -8 15 -4 8 3 15 1 15 -4 0 -6 -9 -10 -20 -10
-11 0 -20 6 -20 13 0 18 10 27 29 26 13 -1 13 -2 -1 -6z m3215 0 c-27 -5 -30
-19 -5 -27 13 -4 13 -4 -3 -3 -11 1 -21 10 -23 20 -3 13 3 17 25 16 23 -1 24
-2 6 -6z m3565 0 c-10 -2 -18 -9 -18 -15 0 -5 7 -8 15 -4 8 3 15 1 15 -4 0 -6
-9 -10 -20 -10 -11 0 -20 6 -20 13 0 18 10 27 29 26 13 -1 13 -2 -1 -6z m59
-16 c-2 -6 -9 -12 -15 -13 -7 -1 -8 0 -2 3 8 3 7 9 -1 19 -10 12 -9 13 5 8 9
-4 15 -11 13 -17z m133 3 c0 -14 -6 -20 -22 -19 -17 1 -19 2 -5 6 20 5 22 19
5 26 -8 3 -6 6 5 6 11 1 17 -6 17 -19z m2523 13 c-7 -2 -19 -2 -25 0 -7 3 -2
5 12 5 14 0 19 -2 13 -5z m-5943 -18 c5 3 10 1 10 -4 0 -17 -37 -13 -44 5 -5
14 -4 15 8 5 8 -7 20 -10 26 -6z m-4070 -9 c-7 -7 -13 -7 -20 0 -6 6 -3 10 10
10 13 0 16 -4 10 -10z m3410 4 c0 -5 -8 -10 -17 -10 -15 0 -16 2 -3 10 19 12
20 12 20 0z m230 -4 c-7 -7 -13 -7 -20 0 -6 6 -3 10 10 10 13 0 16 -4 10 -10z
m285 4 c-3 -5 -14 -10 -23 -9 -14 0 -13 2 3 9 27 11 27 11 20 0z m2975 -6 c0
-2 -9 -4 -20 -4 -11 0 -20 4 -20 9 0 5 9 7 20 4 11 -3 20 -7 20 -9z m271 -2
c-7 -2 -18 1 -23 6 -8 8 -4 9 13 5 13 -4 18 -8 10 -11z m444 8 c-3 -5 -14 -10
-23 -9 -14 0 -13 2 3 9 27 11 27 11 20 0z m2508 -2 c-2 -5 -10 -8 -18 -8 -8 0
-16 3 -18 8 -3 4 5 7 18 7 13 0 21 -3 18 -7z m137 2 c0 -5 -10 -10 -22 -9 -22
0 -22 1 -3 9 11 5 21 9 23 9 1 1 2 -3 2 -9z m294 -2 c-3 -4 -12 -8 -20 -8 -8
0 -14 4 -14 8 0 4 9 8 19 8 11 0 17 -4 15 -8z m369 0 c-2 -5 -10 -8 -18 -8 -8
0 -16 3 -18 8 -3 4 5 7 18 7 13 0 21 -3 18 -7z m-10606 -4 c-3 -3 -12 -4 -19
-1 -8 3 -5 6 6 6 11 1 17 -2 13 -5z m6410 0 c-3 -3 -12 -4 -19 -1 -8 3 -5 6 6
6 11 1 17 -2 13 -5z m940 0 c-3 -3 -12 -4 -19 -1 -8 3 -5 6 6 6 11 1 17 -2 13
-5z m2740 0 c-3 -3 -12 -4 -19 -1 -8 3 -5 6 6 6 11 1 17 -2 13 -5z m-13011
-176 c4 -6 2 -14 -4 -16 -7 -2 -10 -8 -7 -13 8 -12 -61 -72 -92 -81 -21 -6
-23 -4 -17 15 10 32 67 96 82 91 6 -2 12 1 12 6 0 14 17 12 26 -2z m116 -39
l11 -32 18 34 c21 40 24 32 7 -22 -6 -22 -16 -39 -23 -39 -10 0 -35 60 -35 84
0 17 12 3 22 -25z m92 5 c10 -4 16 -18 16 -35 0 -24 -4 -29 -24 -29 -34 0 -41
16 -14 34 19 14 20 16 5 16 -10 0 -15 5 -12 10 7 12 8 12 29 4z m76 -5 c0 -5
-4 -8 -9 -5 -12 8 -34 -21 -26 -34 4 -6 13 -9 21 -6 8 3 14 1 14 -5 0 -6 -10
-9 -22 -7 -26 3 -35 32 -18 53 14 17 40 20 40 4z m96 -29 c1 -26 1 -28 -3 -7
-2 15 -10 27 -18 27 -8 0 -16 -12 -18 -27 -3 -23 -4 -22 -6 8 -1 32 2 36 22
35 18 -1 22 -7 23 -36z m68 24 c3 -9 6 -25 6 -35 0 -16 -6 -20 -27 -17 -33 4
-43 27 -14 35 12 3 21 9 21 14 0 5 -7 5 -17 2 -11 -4 -14 -3 -9 5 10 17 33 15
40 -4z m56 6 c0 -5 -5 -10 -12 -10 -6 0 -4 -6 7 -13 10 -8 15 -19 11 -25 -9
-14 -46 -16 -46 -2 0 5 7 7 15 4 8 -4 15 -2 15 4 0 5 -7 13 -16 16 -13 5 -14
9 -4 21 14 17 30 20 30 5z m-190 -30 c0 -16 -4 -30 -10 -30 -5 0 -10 14 -10
30 0 17 5 30 10 30 6 0 10 -13 10 -30z m-327 -278 c26 -23 18 -70 -15 -95 -26
-20 -27 -20 -60 0 -45 26 -51 72 -12 102 29 23 55 21 87 -7z m166 -10 c11 -21
-3 -42 -26 -42 -7 0 -13 -9 -13 -21 0 -11 -4 -17 -10 -14 -11 7 -14 78 -3 88
13 13 42 7 52 -11z m201 -32 c0 -47 -2 -50 -25 -50 -14 0 -28 7 -32 15 -5 14
-8 14 -25 -2 -23 -21 -51 -8 -56 26 -5 30 -26 21 -33 -15 -6 -28 -7 -27 -8 8
l-1 37 43 -1 c23 0 49 -7 58 -14 14 -13 17 -13 22 1 4 8 16 15 27 15 11 0 20
7 20 15 0 8 2 15 5 15 3 0 5 -22 5 -50z m111 33 c0 -5 1 -25 2 -46 2 -43 -16
-45 -22 -1 l-4 29 -6 -30 c-5 -24 -11 -30 -31 -30 -22 0 -25 5 -27 35 -1 33
-1 34 5 6 8 -36 26 -36 30 -1 2 14 10 25 18 25 8 0 14 5 14 10 0 11 20 14 21
3z m83 -35 c8 -14 7 -21 -6 -34 -30 -30 -75 9 -48 42 16 18 39 15 54 -8z m41
13 c-19 -8 -19 -8 3 -20 19 -10 21 -15 11 -27 -13 -16 -39 -19 -39 -4 0 5 7 7
15 4 8 -4 15 -2 15 4 0 5 -7 12 -15 16 -24 9 -18 36 8 35 21 0 21 -1 2 -8z
m2835 -241 c1 -14 2 -49 1 -77 l-1 -53 -43 0 c-50 0 -67 13 -67 51 0 36 27 62
57 56 19 -4 23 0 23 23 0 49 26 49 30 0z m5100 -51 l0 -79 -50 0 c-45 0 -52 3
-62 26 -18 38 7 78 50 82 26 3 32 8 32 26 0 12 3 26 6 29 17 16 24 -10 24 -84z
m3016 76 c-8 -8 -20 -15 -27 -15 -7 0 -4 6 7 15 25 19 40 19 20 0z m1034 -76
l0 -79 -50 0 c-38 0 -52 4 -60 19 -25 47 7 98 55 89 22 -5 25 -2 25 22 0 15 3
30 6 33 17 16 24 -10 24 -84z m-9930 65 c0 -8 -4 -12 -10 -9 -5 3 -10 10 -10
16 0 5 5 9 10 9 6 0 10 -7 10 -16z m300 1 c0 -8 -9 -15 -20 -15 -18 0 -20 -7
-20 -65 0 -51 -3 -65 -15 -65 -12 0 -15 14 -15 65 0 63 -1 65 -25 65 -24 0
-32 10 -18 23 3 4 30 7 60 7 40 0 53 -4 53 -15z m795 -10 c29 -28 33 -79 9
-113 -11 -17 -25 -22 -56 -22 -56 0 -78 22 -78 76 0 34 5 47 26 63 35 28 69
26 99 -4z m676 15 c11 0 17 -4 14 -10 -6 -10 -75 -11 -75 0 0 13 14 21 28 15
7 -3 23 -5 33 -5z m317 -7 c2 -9 -7 -13 -27 -13 -40 0 -41 -24 -2 -45 16 -8
31 -20 34 -27 3 -8 9 -2 15 14 13 31 55 47 81 31 9 -6 17 -22 19 -37 3 -24 0
-26 -32 -26 -20 0 -36 -4 -36 -10 0 -5 16 -10 36 -10 21 0 33 -4 29 -10 -12
-19 -74 -11 -87 10 -7 11 -16 20 -19 20 -4 0 -9 -9 -12 -20 -4 -16 -14 -20
-51 -20 -33 0 -46 4 -46 14 0 9 10 13 31 12 42 -1 48 19 10 38 -30 16 -47 48
-36 67 17 27 85 35 93 12z m702 -63 c0 -47 -4 -80 -10 -80 -6 0 -10 33 -10 80
0 47 4 80 10 80 6 0 10 -33 10 -80z m1893 16 c10 -31 21 -55 23 -53 3 2 12 28
22 57 9 30 23 55 30 58 18 6 14 -25 -12 -93 -34 -88 -54 -86 -88 9 -14 41 -24
77 -20 80 13 14 27 -3 45 -58z m327 54 c0 -5 -7 -10 -15 -10 -8 0 -15 5 -15
10 0 6 7 10 15 10 8 0 15 -4 15 -10z m500 -10 c11 -11 20 -26 20 -33 0 -25
-31 -57 -56 -57 -19 0 -24 -5 -24 -25 0 -16 -6 -25 -15 -25 -12 0 -15 16 -15
80 l0 80 35 0 c22 0 43 -8 55 -20z m3694 14 c31 -12 18 -33 -17 -27 -41 6 -67
-16 -67 -57 0 -30 22 -50 54 -50 20 0 21 26 1 34 -26 10 -16 26 16 26 29 0 30
-2 27 -37 -3 -36 -5 -38 -41 -41 -55 -5 -87 19 -87 64 0 19 5 44 11 55 16 31
67 47 103 33z m392 -4 c8 0 14 -4 14 -10 0 -5 -18 -9 -40 -8 -33 1 -38 4 -28
15 6 8 18 11 25 8 8 -3 21 -5 29 -5z m612 -7 c2 -9 -7 -13 -27 -13 -24 0 -31
-4 -31 -20 0 -16 7 -20 31 -20 38 0 35 -24 -4 -28 -41 -5 -38 -42 3 -42 17 0
30 -4 30 -10 0 -5 -20 -10 -45 -10 l-45 0 0 73 c0 41 3 77 7 81 12 11 76 2 81
-11z m-5710 -60 c-28 -20 -33 -21 -41 -8 -6 12 -13 13 -30 4 -21 -11 -21 -10
-6 6 14 14 20 15 38 3 19 -11 24 -11 36 6 16 21 2 51 -18 39 -6 -4 -7 -1 -2 6
5 9 13 7 31 -10 l24 -22 -32 -24z m1682 42 c0 -7 6 -16 13 -19 10 -5 10 -7 0
-12 -15 -7 -18 -74 -3 -74 6 0 10 -4 10 -10 0 -5 -11 -10 -25 -10 -22 0 -25 4
-25 38 0 21 -6 44 -12 50 -9 9 -10 15 -2 20 6 4 13 15 17 25 7 20 27 14 27 -8z
m2800 -7 c0 -5 -4 -7 -8 -4 -5 3 -21 -3 -36 -14 -28 -17 -29 -17 -62 2 -19 11
-34 24 -34 29 0 5 13 0 29 -12 27 -19 32 -20 60 -8 20 9 29 19 26 28 -4 11 -3
12 10 1 8 -7 15 -17 15 -22z m510 7 c0 -7 6 -16 13 -19 10 -5 10 -7 0 -12 -15
-6 -18 -74 -4 -74 5 0 16 11 25 25 10 16 26 25 42 25 15 0 23 4 18 11 -3 6
-17 8 -31 4 -18 -4 -24 -2 -21 7 6 17 56 22 74 7 8 -7 14 -29 14 -55 l0 -43
-80 1 -80 1 0 36 c0 20 -6 43 -12 49 -9 9 -10 15 -2 20 6 4 13 15 17 25 7 20
27 14 27 -8z m870 1 c0 -8 6 -17 13 -20 10 -5 10 -7 0 -12 -15 -7 -18 -74 -3
-74 6 0 10 -5 10 -11 0 -6 -10 -9 -22 -7 -18 2 -24 11 -26 38 -2 19 -9 41 -15
49 -9 11 -9 15 1 18 6 3 12 11 12 19 0 8 7 14 15 14 8 0 15 -6 15 -14z m-9996
-22 c11 -4 16 -19 16 -50 0 -48 14 -57 31 -20 9 19 7 29 -6 50 -17 25 -17 26
2 26 11 0 24 -10 30 -22 l10 -23 12 23 c6 12 19 22 27 22 13 0 13 -4 -2 -29
-16 -28 -16 -31 0 -55 15 -24 15 -26 0 -26 -9 0 -23 8 -30 18 -12 16 -13 16
-19 0 -10 -24 -140 -27 -149 -3 -9 25 5 46 35 52 16 3 26 9 23 14 -3 5 -16 6
-30 3 -23 -6 -32 5 -17 19 8 9 46 9 67 1z m220 0 c12 -4 16 -20 16 -55 l0 -49
-44 0 c-30 0 -46 5 -50 15 -9 25 5 46 35 52 16 3 26 9 23 14 -3 5 -16 6 -30 3
-23 -6 -32 5 -17 19 8 9 46 9 67 1z m312 -19 c21 -31 11 -45 -32 -45 -21 0
-33 -4 -29 -10 3 -5 19 -10 36 -10 16 0 29 -4 29 -10 0 -14 -74 -12 -88 2 -17
17 -15 58 5 80 23 26 59 23 79 -7z m324 10 c0 -8 -6 -12 -14 -9 -7 3 -21 -2
-30 -11 -20 -21 -5 -55 24 -55 11 0 20 -4 20 -10 0 -16 -57 -12 -74 6 -22 21
-20 50 4 74 24 24 70 27 70 5z m50 -31 c0 -38 3 -45 18 -42 12 2 18 15 20 46
2 28 8 42 18 42 10 0 14 -14 14 -56 l0 -55 -47 3 c-41 3 -48 6 -53 28 -9 36 0
80 16 80 10 0 14 -13 14 -46z m200 26 c5 -8 10 -23 10 -33 0 -17 1 -17 16 -3
8 9 24 16 35 16 11 0 17 5 14 10 -3 6 -17 7 -31 4 -14 -4 -24 -2 -24 4 0 15
37 25 66 18 21 -6 24 -12 24 -56 l0 -50 -44 0 c-33 0 -46 5 -51 18 -6 16 -7
16 -16 0 -7 -12 -22 -18 -44 -18 -32 0 -35 -2 -35 -31 0 -20 -4 -29 -12 -27
-14 5 -22 105 -13 144 4 19 11 21 50 20 28 -1 50 -7 55 -16z m218 1 c3 -9 -1
-11 -14 -7 -27 8 -46 -8 -42 -35 4 -33 53 -40 63 -9 4 13 18 23 36 27 16 3 29
10 29 15 0 6 -13 7 -31 3 -24 -6 -30 -4 -27 6 3 9 20 14 44 14 l39 0 3 -53 3
-54 -58 4 c-56 3 -58 2 -58 -22 0 -15 -6 -26 -17 -28 -13 -2 -16 1 -12 12 3 9
-5 24 -20 37 -30 26 -34 69 -10 94 19 19 65 16 72 -4z m230 -14 c20 -41 -5
-77 -52 -77 -39 0 -58 19 -58 57 0 57 85 73 110 20z m470 20 c18 -12 16 -97
-3 -97 -11 0 -15 11 -15 41 0 33 -3 40 -17 37 -13 -2 -19 -14 -21 -41 -5 -53
-30 -49 -34 6 -2 29 -8 42 -18 42 -10 0 -16 -13 -18 -42 -2 -29 -8 -43 -18
-43 -10 0 -14 14 -14 54 l0 54 73 -2 c39 0 78 -5 85 -9z m110 1 c7 -7 12 -32
12 -56 l0 -43 -47 3 c-44 3 -48 5 -48 28 0 19 7 27 33 36 36 11 33 27 -4 18
-23 -6 -32 5 -17 19 11 11 58 8 71 -5z m132 -8 c16 -30 13 -90 -5 -90 -10 0
-15 10 -15 34 0 39 -20 62 -38 44 -7 -7 -12 -27 -12 -45 0 -23 -5 -33 -15 -33
-11 0 -15 13 -15 54 l0 53 45 1 c34 1 47 -3 55 -18z m108 8 c7 -7 12 -32 12
-56 l0 -43 -47 3 c-44 3 -48 5 -48 28 0 20 7 27 34 36 21 7 29 14 22 18 -6 4
-20 4 -31 1 -19 -6 -27 5 -13 18 11 11 58 8 71 -5z m2110 0 c7 -7 12 -32 12
-56 l0 -43 -47 3 c-44 3 -48 5 -48 28 0 20 7 27 34 36 21 7 29 14 22 18 -6 4
-20 4 -31 1 -19 -6 -27 5 -13 18 11 11 58 8 71 -5z m112 -3 c0 -9 -8 -14 -21
-12 -25 2 -45 -23 -36 -47 4 -9 17 -16 32 -16 14 0 25 -4 25 -10 0 -14 -64
-12 -78 2 -17 17 -15 58 5 80 20 22 73 25 73 3z m50 -40 c0 -42 -3 -55 -15
-55 -12 0 -15 13 -15 55 0 42 3 55 15 55 12 0 15 -13 15 -55z m120 35 c5 -10
10 -35 10 -54 0 -29 -4 -36 -20 -36 -17 0 -20 7 -20 38 0 43 -6 53 -26 45 -9
-3 -14 -20 -14 -44 0 -28 -4 -39 -15 -39 -11 0 -15 13 -15 54 l0 53 45 1 c34
1 47 -3 55 -18z m108 8 c7 -7 12 -31 12 -55 l0 -43 -45 0 c-33 0 -47 5 -52 16
-9 24 10 48 43 54 19 4 25 8 16 13 -7 5 -21 5 -32 2 -19 -6 -27 5 -13 18 11
11 58 8 71 -5z m102 -4 c0 -11 -6 -13 -19 -9 -30 9 -35 -14 -6 -25 20 -7 26
-16 23 -33 -2 -18 -10 -23 -40 -25 -22 -2 -38 1 -38 7 0 6 11 11 25 11 30 0
33 16 5 23 -26 7 -36 33 -20 52 17 20 70 20 70 -1z m278 4 c7 -7 12 -22 12
-35 0 -20 -5 -23 -36 -23 -21 0 -33 -4 -29 -10 3 -5 17 -10 31 -10 13 0 24 -4
24 -10 0 -14 -64 -12 -78 2 -17 17 -15 64 4 82 18 19 55 21 72 4z m120 0 c18
-15 16 -98 -3 -98 -11 0 -15 11 -15 39 0 24 -5 41 -14 44 -20 8 -26 -2 -26
-45 0 -31 -3 -38 -20 -38 -18 0 -20 7 -20 54 l0 55 43 -1 c23 0 48 -5 55 -10z
m247 -4 c26 -27 15 -49 -28 -52 -43 -4 -40 -22 4 -22 16 0 29 -4 29 -10 0 -5
-18 -10 -40 -10 -41 0 -60 18 -60 56 0 45 62 70 95 38z m122 4 c19 -15 17 -98
-2 -98 -11 0 -15 11 -15 39 0 22 -5 43 -10 46 -19 12 -40 -16 -40 -51 0 -24
-5 -34 -15 -34 -11 0 -15 13 -15 54 l0 54 42 0 c23 1 48 -4 55 -10z m193 -7
c19 -37 12 -51 -25 -51 -19 0 -35 -4 -35 -10 0 -5 14 -10 30 -10 17 0 30 -5
30 -11 0 -6 -17 -9 -42 -7 -35 3 -43 7 -51 31 -7 21 -5 34 7 52 21 31 70 34
86 6z m100 3 c0 -11 -6 -13 -19 -9 -30 9 -35 -14 -6 -25 20 -7 26 -16 23 -33
-2 -18 -10 -23 -40 -25 -22 -2 -38 1 -38 7 0 6 11 11 25 11 31 0 32 12 3 25
-27 12 -36 44 -16 56 23 15 68 11 68 -7z m2930 1 c12 -14 15 -14 30 0 22 20
70 20 70 -1 0 -11 -6 -13 -19 -9 -30 9 -35 -14 -6 -25 20 -7 26 -16 23 -33 -2
-18 -10 -23 -40 -25 -22 -2 -38 1 -38 7 0 6 11 11 25 11 14 0 25 3 25 8 0 12
-49 31 -56 21 -3 -5 -21 -9 -40 -9 -21 0 -33 -4 -29 -10 3 -5 20 -10 36 -10
18 0 28 -4 24 -10 -9 -14 -68 -13 -83 2 -17 17 -15 64 4 82 20 20 58 21 74 1z
m402 -2 c40 -36 12 -93 -46 -93 -38 0 -56 15 -56 49 0 53 62 80 102 44z m308
-2 c20 -39 13 -51 -31 -51 -24 0 -38 -4 -34 -10 3 -5 19 -10 36 -10 16 0 29
-5 29 -11 0 -6 -17 -9 -42 -7 -36 3 -44 7 -52 30 -7 20 -5 33 8 52 21 32 70
36 86 7z m260 3 c0 -8 -5 -12 -10 -9 -6 4 -18 4 -27 0 -14 -5 -11 -10 15 -25
35 -21 38 -30 20 -48 -14 -14 -78 -16 -78 -2 0 6 11 10 25 10 14 0 25 4 25 8
0 5 -11 14 -25 20 -43 20 -25 62 27 62 19 0 28 -5 28 -16z m195 -11 c5 -13 12
-23 15 -23 3 0 10 10 15 23 8 18 19 22 58 24 l47 2 0 -85 c0 -68 -3 -84 -15
-84 -10 0 -15 10 -15 30 0 28 -3 30 -35 30 -29 0 -37 5 -46 27 l-10 27 -12
-24 c-18 -37 -80 -40 -102 -7 -17 27 -8 70 17 80 30 13 73 2 83 -20z m185 -13
c0 -27 5 -43 15 -47 9 -3 18 -3 21 0 5 4 12 43 13 75 1 6 8 12 16 12 12 0 15
-13 15 -55 l0 -55 -49 0 c-55 0 -61 7 -61 71 0 28 4 39 15 39 11 0 15 -11 15
-40z m186 15 c21 -31 11 -45 -32 -45 -21 0 -33 -4 -29 -10 3 -5 19 -10 36 -10
16 0 29 -4 29 -10 0 -14 -74 -12 -88 2 -17 17 -15 58 5 80 23 26 59 23 79 -7z
m-13610 -10 c4 -11 21 -15 55 -15 45 0 49 -2 49 -24 0 -32 -22 -48 -61 -44
-29 3 -35 8 -50 51 -9 26 -13 47 -8 47 5 0 12 -7 15 -15z m2761 -7 c-3 -8 -6
-5 -6 6 -1 11 2 17 5 13 3 -3 4 -12 1 -19z m44 0 c-5 -13 -12 -32 -16 -43 -6
-19 -7 -19 -17 -2 -5 10 -7 21 -4 24 3 4 6 0 6 -8 1 -8 7 1 15 19 16 36 30 45
16 10z m-2553 -26 c3 -17 -2 -25 -17 -29 -12 -3 -21 -12 -21 -19 0 -8 -4 -14
-8 -14 -10 0 -15 67 -6 81 11 19 49 5 52 -19z m90 -11 c4 -37 -9 -51 -45 -51
-21 0 -23 5 -23 46 0 45 0 45 33 42 28 -3 32 -7 35 -37z m36 7 l14 -33 12 33
c18 49 31 38 13 -13 -8 -25 -19 -45 -24 -45 -8 0 -39 63 -39 81 0 18 10 8 24
-23z m11281 -18 c3 -5 1 -10 -4 -10 -6 0 -11 5 -11 10 0 6 2 10 4 10 3 0 8 -4
11 -10z m-11635 -50 c0 -5 -4 -10 -10 -10 -5 0 -10 5 -10 10 0 6 5 10 10 10 6
0 10 -4 10 -10z m70 0 c0 -5 -4 -10 -10 -10 -5 0 -10 5 -10 10 0 6 5 10 10 10
6 0 10 -4 10 -10z m-37 -246 c-17 -12 -17 -14 5 -34 27 -26 28 -40 2 -47 -11
-3 -20 -10 -20 -17 0 -8 -2 -8 -8 0 -4 7 -16 14 -27 17 -18 4 -18 5 3 6 28 1
28 15 0 43 l-21 21 21 18 c13 10 31 15 42 12 19 -5 19 -6 3 -19z m175 5 c-10
-5 -18 -17 -18 -24 0 -8 8 -16 18 -16 16 -1 16 -2 0 -6 -10 -2 -18 -13 -18
-24 0 -12 -4 -17 -11 -14 -9 6 -11 69 -2 88 2 4 14 7 26 7 20 -1 20 -2 5 -11z
m39 -71 c-2 -13 -4 -5 -4 17 -1 22 1 32 4 23 2 -10 2 -28 0 -40z m81 15 c2
-19 -1 -33 -7 -33 -6 0 -11 14 -11 30 0 17 -4 30 -10 30 -5 0 -10 -13 -10 -30
0 -16 -4 -30 -10 -30 -5 0 -10 16 -10 36 0 33 2 35 28 32 22 -2 28 -8 30 -35z
m66 21 c14 -37 7 -54 -24 -54 -35 0 -43 29 -10 37 11 3 20 10 20 15 0 6 -7 8
-15 4 -8 -3 -15 -1 -15 4 0 16 37 11 44 -6z m74 -21 c2 -19 -1 -33 -7 -33 -6
0 -11 14 -11 30 0 17 -4 30 -10 30 -5 0 -10 -13 -10 -30 0 -16 -4 -30 -10 -30
-5 0 -10 16 -10 36 0 33 2 35 28 32 22 -2 28 -8 30 -35z m67 27 c5 -8 11 -7
21 1 7 6 21 9 29 5 22 -8 18 -36 -5 -36 -27 0 -25 -18 3 -23 19 -4 18 -4 -5
-6 -16 0 -28 4 -28 9 0 6 -7 6 -19 -1 -23 -15 -51 -5 -51 19 0 33 40 56 55 32z
m95 -25 c0 -19 -4 -35 -10 -35 -5 0 -10 16 -10 35 0 19 5 35 10 35 6 0 10 -16
10 -35z m42 23 c-7 -7 -12 -22 -12 -35 0 -13 -4 -23 -10 -23 -5 0 -10 16 -10
35 0 29 4 35 22 35 17 0 19 -3 10 -12z m73 -23 c0 -25 -4 -30 -25 -30 -16 0
-26 6 -28 18 -6 30 6 49 30 45 18 -2 23 -9 23 -33z m1997 -22 c23 -20 24 -90
2 -121 -15 -22 -48 -29 -72 -14 -20 13 -32 68 -21 104 14 50 55 64 91 31z
m110 -8 l12 -26 21 27 c34 43 50 26 19 -20 -22 -32 -23 -38 -9 -32 26 10 52
-2 58 -26 15 -57 -55 -83 -76 -29 l-11 30 -18 -30 c-10 -16 -25 -29 -34 -29
-13 0 -13 5 5 34 27 43 26 44 -6 48 -48 5 -45 78 2 78 18 0 29 -8 37 -25z
m4342 9 c21 -20 21 -93 0 -122 -18 -26 -56 -29 -78 -6 -22 21 -21 102 1 126
20 22 56 23 77 2z m4436 -64 c0 -73 -2 -80 -20 -80 -18 0 -20 7 -20 55 0 44
-3 53 -15 49 -24 -9 -18 23 7 40 42 30 48 22 48 -64z m-5160 29 c0 -12 -4 -17
-11 -14 -5 4 -19 -1 -29 -10 -16 -15 -22 -16 -35 -5 -13 11 -19 10 -35 -5 -11
-10 -20 -14 -20 -8 0 5 9 18 20 28 16 15 22 15 35 5 12 -10 18 -10 30 0 13 11
13 15 3 21 -9 6 -4 9 15 9 21 0 27 -5 27 -21z m-6500 -264 l0 -55 50 4 c29 3
50 0 50 -5 0 -6 -25 -9 -57 -7 l-58 3 -3 58 c-2 35 1 57 8 57 6 0 10 -23 10
-55z m60 5 c0 -22 -5 -40 -10 -40 -10 0 -11 55 -3 73 9 16 13 5 13 -33z m198
7 c-1 -18 2 -38 6 -45 4 -7 3 -12 -2 -12 -6 0 -12 7 -16 15 -3 8 -10 15 -16
15 -5 0 -10 -7 -10 -15 0 -8 -4 -15 -9 -15 -7 0 -9 72 -2 88 1 1 12 2 26 2 23
0 25 -4 23 -33z m102 -14 c0 -27 -4 -43 -8 -36 -8 12 -4 83 4 83 2 0 4 -21 4
-47z m180 43 c0 -2 -7 -7 -16 -10 -8 -3 -12 -2 -9 4 6 10 25 14 25 6z m-71
-37 c-7 -4 -9 -16 -6 -28 3 -12 2 -21 -3 -21 -9 0 -18 51 -12 69 3 9 7 9 18 0
11 -9 12 -14 3 -20z m-382 -26 c-3 -10 -5 -4 -5 12 0 17 2 24 5 18 2 -7 2 -21
0 -30z m243 17 c0 -14 -7 -20 -22 -21 -22 0 -22 -1 -3 -9 19 -8 19 -9 -1 -9
-26 -1 -39 26 -23 45 18 21 49 17 49 -6z m100 -10 c0 -25 -4 -30 -25 -30 -16
0 -25 6 -25 15 0 8 7 15 15 15 8 0 15 5 15 11 0 6 -7 9 -15 5 -8 -3 -15 -1
-15 4 0 6 11 10 25 10 21 0 25 -5 25 -30z m115 0 c0 -20 -6 -26 -26 -28 -30
-4 -46 22 -28 45 20 23 54 12 54 -17z m78 11 c2 -10 1 -25 -4 -32 -6 -10 -9
-5 -9 14 0 35 -21 32 -31 -4 -6 -21 -7 -21 -8 9 -1 27 2 32 23 32 15 0 26 -7
29 -19z m81 4 c9 -25 -5 -45 -30 -45 -14 0 -27 7 -30 15 -10 25 4 45 30 45 13
0 26 -7 30 -15z m41 5 c-18 -7 -19 -8 -2 -15 25 -10 21 -35 -5 -34 -21 0 -21
1 -4 8 18 7 18 8 3 14 -25 10 -21 37 6 36 21 0 21 -1 2 -9z m-715 -30 c0 -5
-4 -10 -10 -10 -5 0 -10 5 -10 10 0 6 5 10 10 10 6 0 10 -4 10 -10z m7124 -32
c8 -6 8 -8 -1 -8 -6 0 -14 -8 -16 -17 -3 -10 -5 2 -5 27 0 25 3 36 5 25 3 -11
10 -23 17 -27z m24 17 c-3 -3 -9 2 -12 12 -6 14 -5 15 5 6 7 -7 10 -15 7 -18z
m845 -9 c-2 -27 1 -36 14 -39 14 -4 13 -5 -4 -6 -20 -1 -23 4 -23 39 0 22 4
40 9 40 4 0 7 -15 4 -34z m522 -36 c7 0 15 6 18 13 2 7 3 6 3 -3 -1 -8 -11
-16 -24 -18 -20 -3 -22 0 -20 40 l1 43 4 -37 c3 -24 9 -38 18 -38z m157 25 c5
-43 -8 -47 -14 -5 -4 26 -1 40 8 40 1 0 4 -16 6 -35z m4070 0 c2 -19 0 -35 -4
-35 -4 0 -8 16 -8 35 0 19 2 35 4 35 2 0 6 -16 8 -35z m-5492 -11 c0 -19 -28
-30 -42 -16 -8 8 -4 9 12 5 20 -5 22 -3 18 15 -4 12 -2 20 3 16 5 -3 9 -12 9
-20z m140 1 c0 -14 -2 -25 -4 -25 -2 0 -6 11 -8 25 -3 14 -1 25 3 25 5 0 9
-11 9 -25z m27 -12 c-3 -10 -5 -4 -5 12 0 17 2 24 5 18 2 -7 2 -21 0 -30z
m265 15 c-4 -18 -2 -20 16 -16 12 4 22 2 22 -3 0 -13 -37 -11 -45 1 -4 6 -4
17 -1 25 8 23 15 18 8 -7z m395 -15 c-3 -10 -5 -4 -5 12 0 17 2 24 5 18 2 -7
2 -21 0 -30z m170 0 c-3 -10 -5 -4 -5 12 0 17 2 24 5 18 2 -7 2 -21 0 -30z
m157 22 c-4 -8 -8 -15 -10 -15 -2 0 -4 7 -4 15 0 8 4 15 10 15 5 0 7 -7 4 -15z
m3315 -22 c0 -21 -3 -32 -6 -25 -2 6 -11 12 -18 12 -8 0 -16 4 -19 9 -4 5 4 7
16 3 18 -4 20 -2 16 16 -4 12 -2 22 3 22 5 0 9 -17 8 -37z m40 -3 c5 0 12 8
14 18 4 13 5 11 6 -5 1 -16 -5 -23 -18 -23 -18 0 -32 19 -30 43 0 7 4 2 9 -10
5 -13 14 -23 19 -23z m108 18 c-3 -8 -6 -5 -6 6 -1 11 2 17 5 13 3 -3 4 -12 1
-19z m143 12 c0 -5 -10 -10 -22 -9 -22 0 -22 1 -3 9 11 5 21 9 23 9 1 1 2 -3
2 -9z m310 -15 c0 -18 -5 -25 -20 -25 -13 0 -20 6 -19 18 0 10 3 12 6 5 2 -7
9 -13 15 -13 6 0 8 6 5 14 -5 12 0 26 10 26 2 0 3 -11 3 -25z m270 -3 c0 -31
-16 -52 -39 -51 -9 0 -5 5 9 11 l25 11 -25 6 -25 7 24 6 c16 5 22 12 18 22 -4
9 -2 16 3 16 6 0 10 -13 10 -28z m118 -8 c-3 -14 -5 -12 -10 9 -3 19 -2 25 4
19 6 -6 8 -18 6 -28z m-5418 17 c0 -5 -6 -14 -14 -20 -12 -10 -13 -8 -9 8 5
21 23 30 23 12z m240 -6 c10 -12 9 -16 -4 -21 -9 -4 -20 -4 -23 0 -4 3 2 6 13
6 19 1 19 1 0 15 -11 8 -15 15 -9 15 6 0 16 -7 23 -15z m280 -5 c0 -21 -33
-29 -44 -11 -4 5 3 7 14 4 22 -6 28 12 8 20 -8 3 -6 6 5 6 11 1 17 -6 17 -19z
m310 -15 c0 -5 -5 -3 -10 5 -5 8 -10 20 -10 25 0 6 5 3 10 -5 5 -8 10 -19 10
-25z m100 15 c0 -14 -6 -20 -22 -19 -19 1 -19 2 -5 6 11 3 16 11 13 19 -3 8
-1 14 4 14 6 0 10 -9 10 -20z m143 13 c-27 -5 -30 -19 -5 -27 13 -4 13 -4 -3
-3 -11 1 -21 10 -23 20 -3 13 3 17 25 16 23 -1 24 -2 6 -6z m260 0 c-27 -5
-30 -19 -5 -27 13 -4 13 -4 -3 -3 -11 1 -21 10 -23 20 -3 13 3 17 25 16 23 -1
24 -2 6 -6z m95 0 c-10 -2 -18 -8 -18 -13 0 -5 8 -11 18 -14 13 -4 13 -4 -3
-3 -30 3 -33 37 -3 36 17 -1 18 -3 6 -6z m2881 -27 c-3 -3 -11 5 -18 17 -13
21 -12 21 5 5 10 -10 16 -20 13 -22z m44 27 c-27 -5 -30 -19 -5 -27 13 -4 13
-4 -3 -3 -11 1 -21 10 -23 20 -3 13 3 17 25 16 23 -1 24 -2 6 -6z m185 0 c-10
-2 -18 -8 -18 -13 0 -5 8 -11 18 -14 13 -4 13 -4 -3 -3 -30 3 -33 37 -3 36 17
-1 18 -3 6 -6z m312 -8 c0 -20 -28 -31 -42 -17 -8 8 -5 9 11 5 15 -4 21 -1 21
11 0 9 2 16 5 16 3 0 5 -7 5 -15z m40 0 c10 -12 9 -16 -4 -21 -9 -4 -20 -4
-23 0 -4 3 2 6 13 6 19 1 19 1 0 15 -11 8 -15 15 -9 15 6 0 16 -7 23 -15z
m300 -5 c0 -13 -7 -20 -20 -20 -11 0 -20 4 -20 10 0 5 7 7 15 4 9 -4 15 0 15
10 0 9 2 16 5 16 3 0 5 -9 5 -20z m153 13 c-27 -5 -30 -19 -5 -27 13 -4 13 -4
-3 -3 -11 1 -21 10 -23 20 -3 13 3 17 25 16 23 -1 24 -2 6 -6z m-5148 -22 c-8
-13 -32 -14 -39 -2 -4 5 3 7 14 4 12 -3 20 0 20 8 0 7 3 10 6 6 3 -3 3 -10 -1
-16z m1295 4 c0 -8 -7 -15 -15 -15 -13 0 -14 3 -3 15 16 18 18 18 18 0z m3280
-11 c0 -2 -7 -4 -15 -4 -8 0 -15 4 -15 10 0 5 7 7 15 4 8 -4 15 -8 15 -10z
m204 -6 c-3 -5 -12 -4 -20 3 -19 16 -18 18 6 12 11 -3 17 -9 14 -15z m119 10
c-2 -5 -10 -8 -18 -8 -8 0 -16 3 -18 8 -3 4 5 7 18 7 13 0 21 -3 18 -7z
m-4536 -4 c-3 -3 -12 -4 -19 -1 -8 3 -5 6 6 6 11 1 17 -2 13 -5z m4156 -1 c-7
-2 -19 -2 -25 0 -7 3 -2 5 12 5 14 0 19 -2 13 -5z m794 1 c-3 -3 -12 -4 -19
-1 -8 3 -5 6 6 6 11 1 17 -2 13 -5z m-10127 -84 c-11 -7 -12 -12 -4 -17 9 -6
8 -12 -2 -21 -12 -11 -14 -8 -14 18 0 22 5 30 18 30 14 0 15 -2 2 -10z m660
-20 c0 -41 -28 -67 -44 -41 -3 5 2 8 12 7 13 -1 17 7 17 31 0 17 3 29 7 26 5
-2 8 -13 8 -23z m-353 -12 c-3 -8 -6 -5 -6 6 -1 11 2 17 5 13 3 -3 4 -12 1
-19z m1003 18 c0 -3 -4 -8 -10 -11 -5 -3 -10 -1 -10 4 0 6 5 11 10 11 6 0 10
-2 10 -4z m-1230 -31 c0 -18 -5 -25 -20 -25 -13 0 -20 6 -19 18 0 10 3 12 6 5
2 -7 9 -13 15 -13 6 0 8 6 5 14 -5 12 0 26 10 26 2 0 3 -11 3 -25z m45 -4 c-6
-5 -25 10 -25 20 0 5 6 4 14 -3 8 -7 12 -15 11 -17z m120 19 c3 -5 -1 -10 -10
-10 -9 0 -13 5 -10 10 3 6 8 10 10 10 2 0 7 -4 10 -10z m27 -12 c-4 -18 -2
-20 16 -16 12 4 22 2 22 -3 0 -13 -37 -11 -45 1 -4 6 -4 17 -1 25 8 23 15 18
8 -7z m105 -12 c-7 -17 -47 -23 -47 -7 0 5 10 7 22 3 18 -4 20 -2 15 18 -4 16
-3 20 5 12 6 -6 8 -18 5 -26z m115 9 c-2 -14 -6 -25 -8 -25 -2 0 -4 11 -4 25
0 14 4 25 9 25 4 0 6 -11 3 -25z m38 0 c0 -14 -2 -25 -4 -25 -2 0 -6 11 -8 25
-3 14 -1 25 3 25 5 0 9 -11 9 -25z m280 0 c0 -20 -5 -25 -24 -25 -13 0 -27 7
-30 16 -5 14 -4 15 8 5 18 -15 40 -5 32 15 -3 8 -1 14 4 14 6 0 10 -11 10 -25z
m117 -12 c-3 -10 -5 -4 -5 12 0 17 2 24 5 18 2 -7 2 -21 0 -30z m123 12 c0
-18 -5 -25 -20 -25 -11 0 -20 4 -20 10 0 5 7 7 15 4 8 -4 15 -1 15 5 0 6 -6
11 -12 11 -9 0 -8 4 2 10 20 13 20 13 20 -15z m32 0 c-2 -14 -6 -25 -8 -25 -2
0 -4 11 -4 25 0 14 4 25 9 25 4 0 6 -11 3 -25z m128 16 c0 -5 -10 -11 -22 -14
-23 -4 -23 -4 2 -15 23 -10 24 -11 4 -11 -31 -1 -39 28 -11 39 12 5 23 9 25 9
1 1 2 -3 2 -8z m167 -25 c-7 -17 -47 -23 -47 -7 0 5 10 7 22 3 18 -4 20 -2 15
18 -4 16 -3 20 5 12 6 -6 8 -18 5 -26z m-1194 17 c-7 -2 -19 -2 -25 0 -7 3 -2
5 12 5 14 0 19 -2 13 -5z m287 3 c0 -2 -11 -6 -25 -8 -14 -3 -25 -1 -25 3 0 5
11 9 25 9 14 0 25 -2 25 -4z m270 -16 c0 -13 -7 -20 -20 -20 -11 0 -20 4 -20
10 0 5 7 7 15 4 8 -4 15 -2 15 4 0 6 -6 13 -12 15 -8 3 -6 6 5 6 11 1 17 -6
17 -19z m123 13 c-7 -2 -19 -2 -25 0 -7 3 -2 5 12 5 14 0 19 -2 13 -5z m117
-18 c5 3 10 1 10 -4 0 -17 -37 -13 -44 5 -5 14 -4 15 8 5 8 -7 20 -10 26 -6z
m-730 -7 c0 -5 -9 -8 -19 -8 -11 0 -22 3 -24 8 -3 4 6 7 19 7 13 0 24 -3 24
-7z m-237 -5 c-7 -2 -19 -2 -25 0 -7 3 -2 5 12 5 14 0 19 -2 13 -5z m114 1
c-3 -3 -12 -4 -19 -1 -8 3 -5 6 6 6 11 1 17 -2 13 -5z m56 -1 c-7 -2 -19 -2
-25 0 -7 3 -2 5 12 5 14 0 19 -2 13 -5z m274 1 c-3 -3 -12 -4 -19 -1 -8 3 -5
6 6 6 11 1 17 -2 13 -5z m406 -1 c-7 -2 -19 -2 -25 0 -7 3 -2 5 12 5 14 0 19
-2 13 -5z m554 1 c-3 -3 -12 -4 -19 -1 -8 3 -5 6 6 6 11 1 17 -2 13 -5z m-622
-24 c-3 -5 -14 -10 -23 -9 -14 0 -13 2 3 9 27 11 27 11 20 0z m-3422 -22 c19
-9 27 -21 28 -40 1 -16 2 -34 3 -40 1 -7 -8 -14 -19 -17 -11 -2 -23 -8 -26
-13 -7 -11 -68 11 -70 24 -6 54 -1 73 19 76 12 2 22 8 22 13 0 12 11 11 43 -3z
m178 -17 c-34 -9 -48 -35 -31 -56 7 -9 22 -14 32 -12 10 3 18 1 18 -4 0 -13
-44 -11 -58 3 -15 15 -15 51 0 66 7 7 23 12 38 11 l25 -1 -24 -7z m227 2 c-13
-3 -18 -15 -18 -44 0 -47 -16 -52 -23 -6 -6 44 1 57 32 56 17 -1 20 -3 9 -6z
m407 -5 c-3 -7 0 -20 5 -28 9 -13 12 -13 21 3 12 21 38 22 46 2 5 -14 8 -14
24 1 11 10 22 14 27 9 4 -4 1 -10 -6 -12 -10 -4 -9 -8 4 -17 9 -7 14 -18 10
-24 -8 -14 -46 -16 -46 -3 0 5 10 7 23 4 20 -4 21 -3 5 10 -10 8 -30 12 -48 9
-35 -5 -40 -19 -7 -25 20 -4 19 -4 -4 -6 -17 0 -29 5 -33 16 -6 15 -8 15 -19
-2 -8 -9 -22 -16 -33 -13 -27 5 -30 43 -4 61 20 14 21 16 3 20 -12 3 -9 5 9 6
18 1 26 -3 23 -11z m-545 -23 c16 -19 3 -55 -19 -55 -29 0 -44 25 -31 49 13
25 33 27 50 6z m78 -23 c2 -18 -1 -32 -7 -32 -6 0 -11 14 -11 31 0 17 -4 28
-10 24 -5 -3 -10 -17 -10 -31 0 -13 -4 -24 -10 -24 -15 0 -12 57 3 63 27 12
42 1 45 -31z m136 32 c19 -7 22 -64 4 -82 -7 -7 -21 -12 -32 -11 -19 0 -18 2
4 11 l25 11 -25 6 c-28 8 -38 35 -20 56 14 17 21 18 44 9z m128 -29 c-2 -19
-8 -35 -13 -35 -14 0 -11 58 4 63 6 3 12 6 12 6 1 1 -1 -15 -3 -34z m66 -3 c3
-29 1 -32 -22 -32 -31 0 -36 29 -6 37 11 3 17 9 14 14 -3 5 -10 7 -15 4 -5 -4
-9 -1 -9 5 0 6 8 10 18 8 11 -2 18 -14 20 -36z m72 27 c0 -5 -4 -8 -9 -5 -12
8 -34 -21 -26 -34 4 -6 13 -9 21 -6 10 4 13 -1 10 -16 -1 -12 -9 -24 -16 -26
-7 -3 -10 0 -7 6 4 5 0 15 -8 22 -18 15 -19 42 -3 58 15 15 38 16 38 1z m-333
-46 c-3 -10 -5 -2 -5 17 0 19 2 27 5 18 2 -10 2 -26 0 -35z m113 21 c0 -32 22
-27 31 7 6 21 7 21 8 -8 1 -28 -2 -33 -23 -33 -23 0 -36 16 -36 46 0 8 5 14
10 14 6 0 10 -12 10 -26z m2220 -899 c0 -8 -7 -15 -15 -15 -8 0 -15 7 -15 15
0 8 7 15 15 15 8 0 15 -7 15 -15z m50 -70 c0 -50 -4 -85 -10 -85 -6 0 -10 35
-10 85 0 50 4 85 10 85 6 0 10 -35 10 -85z m-90 65 c0 -5 -13 -10 -30 -10 -23
0 -30 -4 -30 -20 0 -15 7 -20 25 -20 16 0 25 -6 25 -15 0 -9 -9 -15 -24 -15
-20 0 -25 -6 -28 -32 -2 -17 -9 -33 -15 -36 -10 -3 -13 17 -13 77 l0 81 45 0
c25 0 45 -4 45 -10z m40 -96 c0 -41 -4 -54 -15 -54 -11 0 -15 13 -15 53 0 30
3 57 6 60 15 15 24 -8 24 -59z m154 50 c10 -9 16 -33 16 -59 l0 -44 -47 2
c-46 2 -48 3 -48 32 0 25 5 32 34 41 21 7 29 13 20 16 -8 3 -22 1 -31 -4 -13
-6 -18 -5 -18 6 0 13 16 22 47 25 6 0 19 -6 27 -15z m398 -361 c16 -14 18 -33
18 -166 0 -126 -3 -153 -17 -169 -15 -17 -39 -18 -340 -18 -310 0 -324 1 -343
20 -18 18 -20 33 -20 163 0 205 -35 187 362 187 285 0 323 -2 340 -17z m883
-103 c-3 -5 -11 -10 -16 -10 -6 0 -7 5 -4 10 3 6 11 10 16 10 6 0 7 -4 4 -10z
m1510 0 c-3 -5 -11 -10 -16 -10 -6 0 -7 5 -4 10 3 6 11 10 16 10 6 0 7 -4 4
-10z m-2105 -60 c0 -33 3 -40 20 -40 14 0 25 12 36 40 9 22 22 40 29 40 6 0
18 -19 26 -42 l14 -43 3 43 c3 39 5 42 31 42 25 0 29 -5 34 -37 4 -20 4 -40 1
-45 -8 -13 -92 -10 -97 5 -3 10 -9 10 -26 0 -11 -7 -37 -13 -56 -13 -35 0 -35
0 -35 45 0 25 5 45 10 45 6 0 10 -18 10 -40z m292 14 c17 -36 0 -59 -43 -59
-30 0 -34 3 -37 28 -7 57 57 81 80 31z m81 -11 c-4 -47 13 -49 31 -2 20 48 35
47 53 -6 15 -45 13 -51 -17 -33 -18 10 -24 10 -27 1 -6 -18 -50 -16 -57 2 -7
20 -24 19 -29 -2 -3 -10 -5 4 -6 30 -1 47 0 48 27 45 24 -3 27 -7 25 -35z
m237 22 c6 -8 10 -26 8 -42 -2 -23 -9 -29 -33 -31 -35 -4 -57 20 -49 55 5 18
3 22 -10 17 -10 -4 -16 -18 -16 -40 0 -19 -4 -34 -10 -34 -5 0 -10 14 -10 31
0 19 -7 37 -17 45 -15 11 -8 13 54 13 48 -1 76 -5 83 -14z m85 -20 c1 -17 4
-36 8 -43 11 -17 -3 -15 -25 5 -17 15 -18 15 -18 0 0 -10 -4 -17 -10 -17 -5 0
-10 21 -10 46 0 44 1 45 28 42 23 -2 27 -8 27 -33z m45 -10 c0 -25 -4 -45 -10
-45 -5 0 -10 20 -10 45 0 25 5 45 10 45 6 0 10 -20 10 -45z m89 31 c7 -8 11
-27 9 -43 -3 -25 -7 -28 -37 -28 -43 0 -60 23 -43 59 13 29 52 35 71 12z m481
4 c0 -5 -9 -10 -19 -10 -38 0 -31 -49 9 -63 8 -3 3 -6 -12 -6 -38 -1 -55 32
-33 65 15 23 55 34 55 14z m88 1 c8 -5 12 -22 10 -42 -3 -30 -7 -34 -35 -37
-27 -3 -35 1 -44 21 -21 47 25 86 69 58z m71 -23 l21 -33 0 33 c0 17 5 32 10
32 6 0 10 -20 10 -45 0 -52 -17 -59 -42 -17 l-17 27 -1 -27 c0 -16 -4 -28 -10
-28 -5 0 -10 20 -10 45 0 53 11 57 39 13z m111 22 c0 -5 -10 -10 -22 -11 l-23
0 23 -16 c12 -8 22 -24 22 -34 0 -15 -7 -19 -32 -18 -24 1 -27 3 -10 6 27 5
28 14 1 36 -16 15 -18 21 -9 33 14 16 50 19 50 4z m42 -27 c2 -21 8 -38 13
-38 6 0 11 17 13 38 2 20 8 37 13 37 6 0 9 -19 7 -42 -3 -40 -5 -43 -33 -43
-28 0 -30 3 -33 43 -2 23 1 42 7 42 5 0 11 -17 13 -37z m88 2 c0 -22 6 -38 18
-44 14 -9 13 -10 -10 -11 -26 0 -28 3 -28 45 0 25 5 45 10 45 6 0 10 -16 10
-35z m88 21 c-11 -8 -18 -26 -18 -45 0 -17 -4 -31 -10 -31 -5 0 -10 15 -10 33
0 18 -5 38 -12 45 -9 9 -3 12 28 12 34 -1 37 -2 22 -14z m74 -31 c18 -49 18
-51 -12 -33 -15 10 -22 10 -32 0 -23 -23 -27 -12 -11 33 8 25 20 45 27 45 6 0
19 -20 28 -45z m128 36 c0 -5 -10 -11 -22 -13 -34 -5 -32 -50 2 -59 l25 -7
-25 -1 c-31 -1 -50 16 -50 44 0 12 5 26 12 33 14 14 58 16 58 3z m30 -26 c0
-28 5 -38 23 -45 20 -8 19 -9 -10 -9 -32 -1 -33 0 -33 44 0 25 5 45 10 45 6 0
10 -16 10 -35z m70 -10 c0 -25 -4 -45 -10 -45 -5 0 -10 20 -10 45 0 25 5 45
10 45 6 0 10 -20 10 -45z m57 18 l22 -28 1 28 c0 15 5 27 10 27 6 0 10 -20 10
-45 0 -52 -23 -62 -42 -20 -10 22 -13 23 -20 10 -5 -8 -6 -20 -3 -25 3 -6 1
-10 -4 -10 -6 0 -11 20 -11 45 0 25 3 45 7 45 4 0 17 -12 30 -27z m83 -19 c0
-32 -4 -44 -12 -42 -12 4 -13 12 -10 66 3 42 22 22 22 -24z m80 37 c0 -5 -10
-11 -22 -13 -34 -5 -32 -50 2 -59 23 -7 23 -7 -6 -8 -21 -1 -34 5 -38 15 -9
25 -7 49 6 62 14 14 58 16 58 3z m91 -12 c8 -16 8 -28 0 -46 -9 -20 -17 -24
-44 -21 -27 2 -33 8 -35 31 -2 16 2 35 9 43 17 21 57 17 70 -7z m474 -24 c0
-36 -3 -40 -27 -43 -27 -3 -28 -2 -28 43 0 45 1 46 28 43 24 -3 27 -7 27 -43z
m79 8 c17 -49 26 -50 26 -5 0 49 10 53 39 15 l20 -28 1 28 c0 15 5 27 10 27 6
0 10 -20 10 -45 0 -52 -10 -56 -39 -17 l-20 27 -1 -27 c0 -23 -4 -28 -25 -28
-14 0 -25 5 -25 10 0 6 -9 10 -20 10 -11 0 -20 -4 -20 -10 0 -5 -4 -10 -10
-10 -14 0 -13 11 5 54 18 43 34 43 49 -1z m146 17 c0 -13 7 -20 20 -20 13 0
20 7 20 20 0 11 5 20 10 20 6 0 10 -20 10 -45 0 -46 -14 -61 -23 -25 -3 11
-10 20 -17 20 -7 0 -14 -9 -17 -20 -9 -36 -23 -21 -23 25 0 25 5 45 10 45 6 0
10 -9 10 -20z m148 8 c7 -7 12 -21 12 -33 0 -12 -5 -26 -12 -33 -7 -7 -21 -12
-33 -12 -12 0 -26 5 -33 12 -7 7 -12 21 -12 33 0 12 5 26 12 33 7 7 21 12 33
12 12 0 26 -5 33 -12z m117 2 c-3 -5 -13 -10 -21 -10 -20 0 -17 -20 4 -21 16
-1 16 -2 0 -6 -26 -6 -22 -31 5 -36 16 -3 13 -5 -10 -6 -33 -1 -33 0 -33 44 0
44 1 45 31 45 17 0 28 -4 24 -10z m103 -4 c-11 -8 -18 -26 -18 -45 0 -17 -4
-31 -10 -31 -5 0 -10 16 -10 35 0 19 -4 35 -10 35 -5 0 -10 5 -10 10 0 6 17
10 38 10 33 -1 35 -2 20 -14z m93 -7 c8 -16 8 -28 0 -46 -9 -20 -17 -24 -44
-21 -27 2 -33 8 -35 31 -2 16 2 35 9 43 17 21 57 17 70 -7z m69 11 c0 -5 -7
-10 -15 -10 -21 0 -19 -9 7 -29 26 -22 16 -41 -20 -40 -24 2 -24 2 -4 6 27 5
28 10 0 32 -13 11 -19 24 -15 34 7 18 47 24 47 7z m83 -35 c17 -49 17 -51 -14
-32 -17 10 -23 10 -26 0 -6 -16 -23 -17 -23 -3 0 20 29 80 39 80 5 0 16 -20
24 -45z m487 35 c0 -5 -12 -10 -26 -10 -22 0 -25 -4 -22 -27 2 -19 11 -29 28
-35 21 -6 19 -7 -10 -5 -30 2 -35 6 -38 30 -2 16 2 35 9 43 13 16 59 19 59 4z
m30 -35 c0 -25 -4 -45 -10 -45 -5 0 -10 20 -10 45 0 25 5 45 10 45 6 0 10 -20
10 -45z m86 30 c4 -8 1 -21 -5 -28 -8 -10 -7 -17 1 -25 6 -6 8 -15 4 -19 -4
-5 -13 0 -20 10 -16 21 -26 22 -26 2 0 -8 -4 -15 -10 -15 -5 0 -10 20 -10 45
0 43 1 45 30 45 18 0 33 -6 36 -15z m36 -22 c2 -26 8 -38 18 -38 10 0 16 12
18 38 4 44 22 50 22 8 0 -46 -10 -61 -40 -61 -30 0 -40 15 -40 61 0 42 18 36
22 -8z m131 3 c-1 -17 3 -36 9 -43 8 -10 7 -13 -5 -13 -8 0 -18 8 -22 18 -6
16 -7 16 -16 0 -17 -31 -29 -20 -29 28 0 45 0 45 33 42 29 -3 32 -6 30 -32z
m97 25 c0 -5 -12 -11 -27 -13 -33 -4 -45 -41 -17 -52 22 -8 33 2 14 14 -12 8
-10 10 8 10 15 0 22 -6 22 -20 0 -15 -7 -20 -28 -20 -33 0 -52 16 -52 45 0 12
5 26 12 33 14 14 68 16 68 3z m40 -36 c0 -25 -4 -45 -10 -45 -11 0 -12 6 -12
45 0 39 1 45 12 45 6 0 10 -20 10 -45z m73 0 c17 -49 17 -51 -14 -32 -17 10
-23 10 -26 0 -6 -16 -23 -17 -23 -3 0 20 29 80 39 80 5 0 16 -20 24 -45z
m-5486 -537 c-22 -8 -28 -15 -25 -36 2 -18 11 -29 28 -34 23 -6 23 -7 -5 -5
-25 2 -31 7 -33 30 -4 34 13 57 42 56 18 0 16 -2 -7 -11z m59 -38 c2 -22 -1
-40 -6 -40 -6 0 -10 21 -10 47 0 55 12 50 16 -7z m1622 23 c5 -16 13 -37 17
-48 7 -16 6 -18 -6 -7 -16 14 -49 16 -49 2 0 -5 -4 -10 -10 -10 -5 0 -2 20 8
45 9 25 19 45 23 45 4 0 12 -12 17 -27z m339 -40 c-2 -16 -4 -5 -4 22 0 28 2
40 4 28 2 -13 2 -35 0 -50z m1350 51 c3 -8 0 -21 -7 -27 -10 -10 -12 -8 -7 5
3 10 1 20 -5 24 -14 9 -29 -17 -18 -31 5 -6 2 -18 -6 -29 -13 -18 -14 -16 -14
27 0 44 2 47 25 47 14 0 28 -7 32 -16z m333 -30 c0 -44 -1 -45 -27 -42 -22 2
-28 8 -28 28 0 18 6 26 23 28 12 2 22 10 22 18 0 8 2 14 5 14 3 0 5 -21 5 -46z
m2309 6 c12 0 21 8 24 23 2 12 4 0 4 -28 0 -27 -2 -40 -4 -27 -3 14 -12 22
-24 22 -11 0 -24 -10 -29 -22 -7 -18 -9 -13 -9 27 0 40 2 45 9 28 5 -13 18
-23 29 -23z m1362 10 c14 -38 26 -38 34 1 4 17 9 28 12 26 7 -8 -19 -87 -29
-87 -8 0 -17 19 -32 68 -11 33 3 27 15 -8z m2239 19 l-24 -10 29 -23 c33 -26
27 -47 -13 -45 -24 2 -24 2 -4 6 28 6 28 17 0 35 -27 18 -18 48 14 47 23 0 23
0 -2 -10z m2471 -34 c9 -25 13 -45 8 -45 -5 0 -9 5 -9 10 0 15 -50 12 -51 -2
0 -8 -2 -9 -5 -2 -5 13 23 84 34 84 4 0 14 -20 23 -45z m-11807 -9 c1 -20 -2
-36 -5 -36 -8 0 -17 52 -11 69 7 20 14 5 16 -33z m3767 11 c-7 -7 -7 -17 0
-30 9 -15 8 -18 -2 -15 -15 5 -28 46 -21 66 3 10 8 10 19 1 9 -8 10 -16 4 -22z
m3483 -11 c1 -20 -2 -36 -6 -36 -5 0 -8 3 -9 8 0 4 -2 18 -4 32 -3 26 3 45 12
36 3 -2 6 -21 7 -40z m2150 0 c1 -20 -2 -36 -5 -36 -8 0 -18 62 -12 73 9 14
15 0 17 -37z m111 0 c2 -20 -1 -36 -5 -36 -9 0 -18 51 -12 69 6 19 13 6 17
-33z m-9695 -6 c0 -16 -4 -30 -10 -30 -5 0 -10 14 -10 30 0 17 5 30 10 30 6 0
10 -13 10 -30z m65 19 c4 -6 4 -13 0 -17 -4 -4 -10 -1 -12 6 -7 18 -19 14 -20
-7 -1 -11 6 -22 15 -24 12 -3 11 -5 -5 -6 -25 -1 -34 17 -21 42 10 19 33 23
43 6z m78 -2 c2 -6 1 -21 -4 -32 -6 -17 -8 -16 -8 8 -1 34 -22 32 -32 -4 -7
-22 -7 -22 -8 6 -1 25 3 31 23 33 13 1 26 -4 29 -11z m113 -5 c1 -7 0 -8 -3
-2 -8 18 -33 11 -33 -9 0 -12 8 -21 23 -24 21 -4 21 -4 1 -6 -31 -2 -50 24
-34 44 15 18 42 16 46 -3z m1381 -29 c-3 -10 -5 -2 -5 17 0 19 2 27 5 18 2
-10 2 -26 0 -35z m42 15 c-2 -28 -2 -29 -6 -8 -3 14 -10 28 -17 32 -7 5 -5 8
7 8 13 0 17 -8 16 -32z m37 2 c-1 -39 -16 -39 -16 0 0 17 4 30 9 30 4 0 8 -13
7 -30z m71 -5 c2 -27 1 -28 -5 -6 -11 35 -32 39 -32 5 0 -28 -12 -26 -16 3 -4
25 5 35 29 31 16 -2 23 -11 24 -33z m42 3 c-2 -28 -2 -29 -6 -8 -3 14 -10 28
-17 32 -7 5 -5 8 7 8 13 0 17 -8 16 -32z m69 -1 c3 -23 0 -27 -22 -27 -16 0
-26 6 -26 15 0 8 5 15 11 15 5 0 7 -4 4 -10 -3 -5 -1 -10 4 -10 15 0 14 37 -1
44 -7 3 -4 5 7 3 14 -1 21 -11 23 -30z m1426 25 c-7 -4 -14 -18 -17 -32 -4
-21 -4 -20 -6 8 -1 24 3 32 17 32 11 0 13 -3 6 -8z m71 -22 c0 -18 -6 -26 -23
-28 -13 -2 -25 3 -28 12 -10 26 4 48 28 44 17 -2 23 -10 23 -28z m53 23 c-10
-2 -18 -11 -18 -18 0 -8 8 -19 18 -24 16 -10 16 -10 0 -11 -23 0 -41 33 -26
48 7 7 19 11 28 11 11 -1 11 -2 -2 -6z m86 -8 c3 -8 1 -15 -4 -15 -6 0 -10 5
-10 10 0 6 -4 10 -10 10 -17 0 -11 -38 8 -43 12 -4 11 -5 -6 -6 -24 -1 -38 20
-28 44 3 8 14 15 25 15 10 0 21 -7 25 -15z m103 -32 c-3 -10 -5 -2 -5 17 0 19
2 27 5 18 2 -10 2 -26 0 -35z m82 15 c-1 -30 -2 -30 -8 -9 -9 35 -29 37 -34 4
-4 -27 -4 -27 -6 5 -1 28 2 32 24 32 22 0 25 -4 24 -32z m40 0 c-2 -28 -2 -29
-6 -8 -3 14 -10 28 -17 32 -7 5 -5 8 7 8 13 0 17 -8 16 -32z m75 17 c3 -8 1
-15 -4 -15 -6 0 -10 5 -10 10 0 6 -4 10 -10 10 -17 0 -11 -38 8 -43 12 -4 11
-5 -6 -6 -24 -1 -38 20 -28 44 3 8 14 15 25 15 10 0 21 -7 25 -15z m74 -17 c2
-16 -1 -28 -7 -28 -6 0 -11 12 -11 26 0 32 -22 27 -31 -7 -6 -21 -7 -20 -8 9
-1 31 1 33 27 30 21 -2 28 -9 30 -30z m122 17 c10 -12 10 -18 0 -30 -27 -32
-71 -8 -56 30 3 8 14 15 24 15 11 0 25 -7 32 -15z m1995 -15 c0 -18 -6 -26
-23 -28 -13 -2 -25 3 -28 12 -10 26 4 48 28 44 17 -2 23 -10 23 -28z m47 5
c-7 -37 -22 -41 -22 -6 0 20 5 31 14 31 9 0 12 -8 8 -25z m78 -5 c0 -25 -4
-30 -25 -30 -16 0 -25 6 -25 15 0 8 5 15 11 15 5 0 7 -4 4 -10 -3 -5 -1 -10 4
-10 15 0 14 37 -1 43 -7 3 -3 6 10 6 18 1 22 -4 22 -29z m1244 15 c3 -8 1 -15
-4 -15 -6 0 -10 5 -10 10 0 6 -6 10 -14 10 -21 0 -14 -34 9 -42 18 -6 18 -6
-3 -7 -24 -1 -38 20 -28 44 3 8 14 15 25 15 10 0 21 -7 25 -15z m111 4 c4 -6
4 -13 0 -17 -4 -4 -10 -1 -12 6 -7 19 -23 14 -23 -7 0 -11 8 -22 18 -24 13 -4
12 -5 -4 -6 -12 0 -25 6 -28 15 -12 30 33 60 49 33z m48 4 c-7 -2 -13 -16 -13
-30 0 -33 -11 -24 -14 11 -3 21 1 26 18 25 11 0 15 -3 9 -6z m37 -23 c0 -16
-4 -30 -8 -30 -5 0 -8 14 -8 30 0 17 3 30 8 30 4 0 8 -13 8 -30z m34 3 c-10
-40 -14 -41 -14 -5 0 18 5 32 10 32 6 0 8 -11 4 -27z m44 -6 c5 -37 -15 -34
-20 3 -3 19 -1 29 6 27 6 -2 12 -16 14 -30z m62 3 c0 -25 -4 -30 -25 -30 -25
0 -33 14 -15 25 6 3 10 1 10 -4 0 -6 5 -11 10 -11 17 0 11 38 -7 43 -14 4 -12
5 5 6 18 1 22 -4 22 -29z m42 18 c-5 -7 -12 -22 -15 -33 -3 -13 -5 -9 -6 13
-1 23 3 32 15 32 12 0 14 -3 6 -12z m48 -18 c0 -16 -4 -30 -10 -30 -5 0 -10
14 -10 30 0 17 5 30 10 30 6 0 10 -13 10 -30z m70 15 c15 -19 -3 -45 -31 -45
-23 0 -32 15 -24 40 7 24 37 26 55 5z m1768 -17 c3 -24 0 -28 -22 -28 -27 0
-43 15 -26 25 5 3 10 1 10 -4 0 -6 5 -11 10 -11 17 0 11 38 -7 44 -11 3 -7 4
7 3 19 -2 26 -8 28 -29z m81 20 c-5 -45 14 -52 29 -10 l10 27 1 -33 c1 -31 -1
-33 -26 -30 -22 2 -29 9 -31 31 -2 15 2 27 8 27 6 0 10 -6 9 -12z m83 3 c-10
-6 -10 -10 2 -21 18 -14 12 -30 -12 -30 -15 0 -15 2 -2 11 11 8 12 12 3 16
-19 7 -15 33 5 33 13 0 14 -2 4 -9z m2226 2 c-22 -5 -24 -43 -3 -43 8 0 15 -9
15 -20 0 -11 -5 -20 -11 -20 -5 0 -7 5 -4 10 3 6 0 13 -9 16 -34 13 -24 65 13
63 13 -1 13 -2 -1 -6z m87 -23 c0 -18 -6 -26 -23 -28 -13 -2 -25 3 -28 12 -10
26 4 48 28 44 17 -2 23 -10 23 -28z m73 13 c2 -7 -1 -13 -8 -13 -6 0 -8 5 -5
10 3 6 -1 10 -9 10 -22 0 -20 -37 2 -43 13 -4 12 -5 -4 -6 -26 -1 -39 26 -23
46 14 16 40 14 47 -4z m44 8 c-10 -6 -10 -10 2 -21 18 -14 12 -30 -12 -30 -15
0 -15 2 -2 11 11 8 12 12 3 16 -19 7 -15 33 5 33 13 0 14 -2 4 -9z m-6967
-623 l20 -33 6 35 c6 33 6 32 8 -12 0 -27 -1 -48 -3 -48 -2 0 -15 17 -28 38
l-23 37 -6 -35 -6 -35 -2 43 c-1 50 8 53 34 10z m238 9 c11 -4 16 -16 16 -34
l-2 -28 -4 28 c-2 15 -10 27 -18 27 -8 0 -16 -12 -18 -27 -2 -17 -4 -10 -4 15
0 24 3 39 6 34 3 -5 14 -11 24 -15z m564 -44 c-2 -16 -4 -5 -4 22 0 28 2 40 4
28 2 -13 2 -35 0 -50z m730 5 c-2 -13 -4 -3 -4 22 0 25 2 35 4 23 2 -13 2 -33
0 -45z m-944 45 c4 -3 2 -13 -5 -20 -9 -11 -9 -19 0 -34 7 -10 8 -19 3 -19
-11 0 -21 25 -21 56 0 23 10 31 23 17z m552 -38 c0 -46 -19 -39 -23 8 -2 27 0
36 10 32 7 -3 13 -21 13 -40z m326 3 l-5 -33 -6 30 c-7 32 -3 48 9 41 4 -3 5
-20 2 -38z m-1371 28 c0 -2 -7 -7 -16 -10 -8 -3 -12 -2 -9 4 6 10 25 14 25 6z
m84 -12 c3 -9 6 -23 5 -32 -1 -10 -4 -6 -8 8 -4 14 -13 25 -21 25 -8 0 -17
-11 -21 -25 l-7 -25 -1 27 c-1 36 41 54 53 22z m262 -10 c4 -14 4 -28 0 -31
-3 -4 -6 3 -6 15 0 25 -19 40 -30 23 -5 -9 -9 -9 -18 1 -8 10 -4 13 19 15 23
2 30 -3 35 -23z m102 -12 c3 -26 0 -32 -17 -32 -11 0 -22 4 -25 9 -4 5 3 7 14
4 11 -3 20 0 20 6 0 6 -8 12 -17 12 -17 1 -17 2 0 6 19 5 23 19 7 26 -6 3 -5
4 2 3 7 -1 14 -17 16 -34z m107 28 c3 -6 -1 -7 -9 -4 -18 7 -21 14 -7 14 6 0
13 -4 16 -10z m82 -25 c2 -28 1 -29 -6 -5 -6 19 -13 24 -32 22 -19 -2 -21 0
-9 8 26 17 45 7 47 -25z m53 31 c0 -2 -7 -7 -16 -10 -8 -3 -12 -2 -9 4 6 10
25 14 25 6z m87 -43 c-3 -10 -5 -2 -5 17 0 19 2 27 5 18 2 -10 2 -26 0 -35z
m38 29 c-3 -3 -11 0 -18 7 -9 10 -8 11 6 5 10 -3 15 -9 12 -12z m35 8 c0 -5
-2 -10 -4 -10 -3 0 -8 5 -11 10 -3 6 -1 10 4 10 6 0 11 -4 11 -10z m78 -13 c3
-13 -3 -17 -28 -17 -28 0 -30 2 -20 21 13 24 43 22 48 -4z m69 -13 c1 -25 0
-26 -4 -4 -3 14 -10 29 -17 33 -7 6 -6 7 4 4 8 -2 16 -16 17 -33z m120 11 c1
-16 1 -16 -3 -2 -7 22 -33 22 -41 1 -4 -11 1 -23 13 -32 10 -8 13 -12 5 -10
-25 7 -36 35 -21 53 17 21 44 15 47 -10z m70 -22 c-3 -10 -5 -2 -5 17 0 19 2
27 5 18 2 -10 2 -26 0 -35z m40 11 c1 -25 0 -26 -4 -4 -3 14 -10 29 -17 33 -7
6 -6 7 4 4 8 -2 16 -16 17 -33z m67 20 c13 -34 7 -56 -16 -52 -30 4 -35 28 -8
35 22 6 22 7 5 20 -16 11 -16 13 -3 13 9 0 19 -7 22 -16z m200 8 c2 -4 -4 -8
-15 -8 -10 0 -19 4 -19 8 0 4 6 8 14 8 8 0 17 -4 20 -8z m-1280 -45 c13 1 15
-2 8 -9 -18 -18 -42 -1 -41 29 l1 28 7 -25 c5 -16 14 -24 25 -23z m53 21 c-3
-8 -6 -5 -6 6 -1 11 2 17 5 13 3 -3 4 -12 1 -19z m470 -15 c-3 -10 -5 -4 -5
12 0 17 2 24 5 18 2 -7 2 -21 0 -30z m220 0 c-3 -10 -5 -4 -5 12 0 17 2 24 5
18 2 -7 2 -21 0 -30z m-387 11 c0 -2 -13 -4 -30 -4 -16 0 -30 4 -30 8 0 5 14
7 30 4 17 -2 30 -6 30 -8z m-562 -1 c-10 -2 -26 -2 -35 0 -10 3 -2 5 17 5 19
0 27 -2 18 -5z m579 -15 c-3 -8 -6 -5 -6 6 -1 11 2 17 5 13 3 -3 4 -12 1 -19z
m896 15 c-13 -2 -23 -9 -23 -15 0 -6 9 -8 20 -5 11 3 18 1 14 -4 -7 -12 -31
-11 -39 1 -10 16 4 30 28 29 22 -2 22 -2 0 -6z m-1482 -31 c-7 -2 -18 1 -23 6
-8 8 -4 9 13 5 13 -4 18 -8 10 -11z m550 0 c-7 -2 -18 1 -23 6 -8 8 -4 9 13 5
13 -4 18 -8 10 -11z m134 0 c-3 -3 -11 0 -18 7 -9 10 -8 11 6 5 10 -3 15 -9
12 -12z m226 0 c-7 -2 -18 1 -23 6 -8 8 -4 9 13 5 13 -4 18 -8 10 -11z"/>
<path d="M2600 9500 c0 -37 4 -50 13 -47 7 2 12 21 12 47 0 26 -5 45 -12 48
-9 2 -13 -11 -13 -48z"/>
<path d="M2640 9500 c0 -49 1 -50 30 -50 29 0 30 1 30 50 0 49 -1 50 -30 50
-29 0 -30 -1 -30 -50z"/>
<path d="M941 9306 c-17 -20 -10 -77 12 -90 38 -24 73 36 47 84 -12 23 -42 26
-59 6z"/>
<path d="M1340 9301 c-25 -48 -3 -96 42 -89 19 2 24 10 26 41 2 21 -2 45 -9
53 -16 20 -46 17 -59 -5z"/>
<path d="M386 9235 c4 -8 7 -15 9 -15 2 0 5 7 9 15 3 9 0 15 -9 15 -9 0 -12
-6 -9 -15z"/>
<path d="M3314 8826 c-10 -26 0 -51 21 -51 16 0 20 7 20 30 0 33 -30 49 -41
21z"/>
<path d="M3911 8821 c-15 -27 -3 -53 23 -49 16 2 21 10 21 33 0 36 -28 46 -44
16z"/>
<path d="M2669 8870 c-3 -85 -2 -95 15 -98 42 -9 76 74 44 106 -20 20 -58 15
-59 -8z"/>
<path d="M2863 8793 c-20 -8 -15 -23 7 -23 11 0 20 7 20 15 0 15 -6 17 -27 8z"/>
<path d="M3481 8822 c-12 -23 4 -52 29 -52 23 0 36 36 20 55 -17 20 -37 19
-49 -3z"/>
<path d="M3645 8789 c-4 -6 -4 -13 -1 -16 8 -8 36 5 36 17 0 13 -27 13 -35 -1z"/>
<path d="M160 8739 c0 -24 23 -21 28 4 2 10 -3 17 -12 17 -10 0 -16 -9 -16
-21z"/>
<path d="M380 8716 c0 -39 18 -48 41 -20 15 18 2 47 -25 52 -12 3 -16 -4 -16
-32z"/>
<path d="M670 8699 c0 -24 23 -21 28 4 2 10 -3 17 -12 17 -10 0 -16 -9 -16
-21z"/>
<path d="M742 8703 c2 -10 10 -18 18 -18 22 0 18 29 -3 33 -14 3 -18 -1 -15
-15z"/>
<path d="M930 8700 c0 -11 7 -20 15 -20 8 0 15 9 15 20 0 11 -7 20 -15 20 -8
0 -15 -9 -15 -20z"/>
<path d="M470 8690 c0 -5 5 -10 10 -10 6 0 10 5 10 10 0 6 -4 10 -10 10 -5 0
-10 -4 -10 -10z"/>
<path d="M820 8690 c0 -5 5 -10 10 -10 6 0 10 5 10 10 0 6 -4 10 -10 10 -5 0
-10 -4 -10 -10z"/>
<path d="M227 8703 c-13 -12 -7 -33 8 -33 8 0 15 9 15 20 0 20 -11 26 -23 13z"/>
<path d="M165 8680 c-3 -5 1 -10 10 -10 9 0 13 5 10 10 -3 6 -8 10 -10 10 -2
0 -7 -4 -10 -10z"/>
<path d="M3475 8539 c-4 -6 -4 -13 -1 -16 8 -8 36 5 36 17 0 13 -27 13 -35 -1z"/>
<path d="M4185 8539 c-4 -6 -4 -13 -1 -16 8 -8 36 5 36 17 0 13 -27 13 -35 -1z"/>
<path d="M4755 8539 c-4 -6 -4 -13 -1 -16 8 -8 36 5 36 17 0 13 -27 13 -35 -1z"/>
<path d="M4920 8535 c0 -8 7 -15 15 -15 8 0 15 7 15 15 0 8 -7 15 -15 15 -8 0
-15 -7 -15 -15z"/>
<path d="M175 8420 c-8 -13 4 -32 16 -25 12 8 12 35 0 35 -6 0 -13 -4 -16 -10z"/>
<path d="M520 8380 c0 -5 7 -10 15 -10 8 0 15 5 15 10 0 6 -7 10 -15 10 -8 0
-15 -4 -15 -10z"/>
<path d="M710 8380 c0 -5 7 -10 16 -10 8 0 12 5 9 10 -3 6 -10 10 -16 10 -5 0
-9 -4 -9 -10z"/>
<path d="M160 8072 c0 -8 6 -12 15 -8 8 3 15 1 15 -3 0 -5 -7 -12 -15 -15 -27
-10 0 -46 34 -46 31 0 49 26 31 44 -15 15 -12 26 5 20 10 -4 13 -2 10 8 -8 20
-95 20 -95 0z"/>
<path d="M382 8064 c4 -21 22 -23 26 -1 2 10 -3 17 -13 17 -10 0 -15 -6 -13
-16z"/>
<path d="M2865 7900 c-3 -5 -1 -10 4 -10 6 0 11 5 11 10 0 6 -2 10 -4 10 -3 0
-8 -4 -11 -10z"/>
<path d="M2940 7880 c0 -11 4 -20 9 -20 11 0 22 26 14 34 -12 12 -23 5 -23
-14z"/>
<path d="M3155 7890 c-4 -6 -3 -16 3 -22 6 -6 12 -6 17 2 4 6 3 16 -3 22 -6 6
-12 6 -17 -2z"/>
<path d="M10015 7900 c-3 -5 -1 -10 4 -10 6 0 11 5 11 10 0 6 -2 10 -4 10 -3
0 -8 -4 -11 -10z"/>
<path d="M13292 7886 c1 -10 8 -17 13 -17 15 1 12 24 -3 29 -9 3 -13 -2 -10
-12z"/>
<path d="M13630 7880 c0 -13 5 -20 13 -17 6 2 12 10 12 17 0 7 -6 15 -12 18
-8 2 -13 -5 -13 -18z"/>
<path d="M13705 7890 c-4 -6 -3 -16 3 -22 6 -6 12 -6 17 2 4 6 3 16 -3 22 -6
6 -12 6 -17 -2z"/>
<path d="M13470 7875 c0 -11 9 -15 30 -13 33 2 39 12 14 22 -27 10 -44 7 -44
-9z"/>
<path d="M3550 7886 c0 -8 5 -18 10 -21 6 -3 10 3 10 14 0 12 -4 21 -10 21 -5
0 -10 -6 -10 -14z"/>
<path d="M3595 7890 c-4 -6 -3 -16 3 -22 6 -6 12 -6 17 2 4 6 3 16 -3 22 -6 6
-12 6 -17 -2z"/>
<path d="M3640 7882 c0 -12 19 -26 26 -19 2 2 -2 10 -11 17 -9 8 -15 8 -15 2z"/>
<path d="M6320 7886 c0 -8 5 -18 10 -21 6 -3 10 3 10 14 0 12 -4 21 -10 21 -5
0 -10 -6 -10 -14z"/>
<path d="M6835 7890 c-7 -12 2 -30 16 -30 5 0 9 9 9 20 0 21 -15 27 -25 10z"/>
<path d="M8780 7890 c0 -5 4 -10 9 -10 6 0 13 5 16 10 3 6 -1 10 -9 10 -9 0
-16 -4 -16 -10z"/>
<path d="M8820 7845 c0 -8 5 -15 10 -15 6 0 10 7 10 15 0 8 -4 15 -10 15 -5 0
-10 -7 -10 -15z"/>
<path d="M13110 7885 c0 -13 4 -14 20 -5 11 6 20 13 20 15 0 3 -9 5 -20 5 -11
0 -20 -7 -20 -15z"/>
<path d="M13180 7881 c0 -5 7 -12 16 -15 14 -5 15 -4 4 9 -14 17 -20 19 -20 6z"/>
<path d="M15457 7868 l-25 -43 50 -3 c28 -2 52 -1 54 1 5 5 -39 87 -47 87 -4
0 -18 -19 -32 -42z m30 0 c-3 -8 -6 -5 -6 6 -1 11 2 17 5 13 3 -3 4 -12 1 -19z"/>
<path d="M3845 7890 c-8 -13 4 -32 16 -25 12 8 12 35 0 35 -6 0 -13 -4 -16
-10z"/>
<path d="M7036 7892 c-2 -4 -1 -14 4 -22 7 -11 12 -12 21 -3 6 6 8 16 5 22 -8
13 -23 14 -30 3z"/>
<path d="M10225 7890 c-8 -13 4 -32 16 -25 12 8 12 35 0 35 -6 0 -13 -4 -16
-10z"/>
<path d="M160 7738 c0 -4 20 -8 45 -8 25 0 45 4 45 8 0 4 -20 8 -45 8 -25 0
-45 -4 -45 -8z"/>
<path d="M160 7680 c0 -29 2 -30 45 -30 43 0 45 1 45 30 0 29 -2 30 -45 30
-43 0 -45 -1 -45 -30z"/>
<path d="M386 7715 c-3 -9 0 -15 9 -15 16 0 20 16 6 24 -5 3 -11 -1 -15 -9z"/>
<path d="M680 7696 c0 -17 5 -26 16 -26 10 0 14 7 12 22 -5 32 -28 35 -28 4z"/>
<path d="M464 7705 c-3 -8 -3 -19 1 -25 11 -18 25 -11 25 15 0 27 -17 34 -26
10z"/>
<path d="M540 7710 c0 -5 7 -10 16 -10 8 0 12 5 9 10 -3 6 -10 10 -16 10 -5 0
-9 -4 -9 -10z"/>
<path d="M760 7680 c0 -5 5 -10 10 -10 6 0 10 5 10 10 0 6 -4 10 -10 10 -5 0
-10 -4 -10 -10z"/>
<path d="M2874 7576 c-8 -32 3 -66 22 -66 12 0 14 10 12 42 -3 47 -24 62 -34
24z"/>
<path d="M6220 7580 c0 -15 5 -20 18 -18 9 2 17 10 17 18 0 8 -8 16 -17 18
-13 2 -18 -3 -18 -18z"/>
<path d="M6549 7578 c-3 -63 12 -93 31 -58 14 26 4 80 -16 80 -8 0 -15 -10
-15 -22z"/>
<path d="M6747 7594 c-10 -10 -9 -82 2 -88 16 -10 32 22 29 55 -3 32 -17 46
-31 33z"/>
<path d="M6870 7556 c0 -52 15 -68 31 -32 14 30 4 76 -16 76 -11 0 -15 -12
-15 -44z"/>
<path d="M9680 7556 c0 -52 15 -68 31 -32 14 30 4 76 -16 76 -11 0 -15 -12
-15 -44z"/>
<path d="M9806 7576 c-7 -29 10 -80 24 -71 16 10 13 95 -4 95 -8 0 -17 -11
-20 -24z"/>
<path d="M390 7383 c0 -13 5 -23 10 -23 13 0 13 11 0 30 -8 12 -10 11 -10 -7z"/>
<path d="M650 7361 c0 -12 6 -21 16 -21 9 0 14 7 12 17 -5 25 -28 28 -28 4z"/>
<path d="M510 7370 c0 -5 5 -10 10 -10 6 0 10 5 10 10 0 6 -4 10 -10 10 -5 0
-10 -4 -10 -10z"/>
<path d="M870 7370 c0 -5 4 -10 9 -10 6 0 13 5 16 10 3 6 -1 10 -9 10 -9 0
-16 -4 -16 -10z"/>
<path d="M1060 7360 c0 -11 7 -20 15 -20 8 0 15 9 15 20 0 11 -7 20 -15 20 -8
0 -15 -9 -15 -20z"/>
<path d="M3490 7280 c0 -5 7 -10 15 -10 8 0 15 5 15 10 0 6 -7 10 -15 10 -8 0
-15 -4 -15 -10z"/>
<path d="M7010 7280 c0 -5 5 -10 10 -10 6 0 10 5 10 10 0 6 -4 10 -10 10 -5 0
-10 -4 -10 -10z"/>
<path d="M13340 7280 c0 -5 5 -10 10 -10 6 0 10 5 10 10 0 6 -4 10 -10 10 -5
0 -10 -4 -10 -10z"/>
<path d="M13460 7280 c0 -5 5 -10 10 -10 6 0 10 5 10 10 0 6 -4 10 -10 10 -5
0 -10 -4 -10 -10z"/>
<path d="M196 7040 c-16 -17 -26 -34 -22 -37 8 -8 59 44 54 57 -1 5 -16 -4
-32 -20z"/>
<path d="M450 7010 c0 -5 5 -10 10 -10 6 0 10 5 10 10 0 6 -4 10 -10 10 -5 0
-10 -4 -10 -10z"/>
<path d="M680 7010 c0 -5 5 -10 10 -10 6 0 10 5 10 10 0 6 -4 10 -10 10 -5 0
-10 -4 -10 -10z"/>
<path d="M210 6740 c8 -5 20 -10 25 -10 6 0 3 5 -5 10 -8 5 -19 10 -25 10 -5
0 -3 -5 5 -10z"/>
<path d="M170 6731 c0 -10 24 -21 43 -21 7 0 3 7 -7 15 -22 17 -36 19 -36 6z"/>
<path d="M226 6702 c-11 -13 -16 -28 -12 -38 6 -16 8 -16 22 -2 9 8 14 26 12
38 l-3 22 -19 -20z"/>
<path d="M160 6690 c0 -10 9 -24 20 -30 17 -9 20 -8 20 14 0 13 -7 27 -16 30
-23 9 -24 8 -24 -14z"/>
<path d="M380 6720 c0 -13 5 -20 13 -17 6 2 12 10 12 17 0 7 -6 15 -12 18 -8
2 -13 -5 -13 -18z"/>
<path d="M497 6696 c-7 -19 18 -42 28 -26 8 13 -1 40 -14 40 -5 0 -11 -6 -14
-14z"/>
<path d="M574 6695 c-9 -23 14 -45 26 -25 5 8 8 19 7 24 -6 17 -27 18 -33 1z"/>
<path d="M772 6688 c2 -13 8 -23 13 -23 6 0 11 10 13 23 2 15 -2 22 -13 22
-11 0 -15 -7 -13 -22z"/>
<path d="M3621 6420 c-7 -4 -11 -18 -9 -31 5 -35 42 -33 46 2 3 28 -16 43 -37
29z"/>
<path d="M8717 6424 c-4 -4 -7 -20 -7 -36 0 -21 5 -28 20 -28 11 0 23 7 27 16
10 27 -22 65 -40 48z"/>
<path d="M12760 6415 c-17 -21 -8 -50 17 -53 26 -4 41 31 23 53 -16 19 -24 19
-40 0z"/>
<path d="M3919 6446 c-23 -49 11 -97 55 -80 42 16 27 104 -19 104 -17 0 -29
-8 -36 -24z"/>
<path d="M5057 6424 c-13 -13 -7 -24 14 -24 11 0 19 5 17 12 -5 14 -22 21 -31
12z"/>
<path d="M8360 6441 c0 -32 6 -37 28 -22 19 11 11 45 -11 49 -13 3 -17 -3 -17
-27z"/>
<path d="M12467 6383 c-12 -11 -8 -23 7 -23 8 0 16 7 20 15 5 15 -14 21 -27 8z"/>
<path d="M3227 6384 c-9 -10 2 -24 19 -24 8 0 14 7 14 15 0 15 -21 21 -33 9z"/>
<path d="M3445 6381 c-3 -5 -1 -12 5 -16 12 -7 30 2 30 16 0 12 -27 12 -35 0z"/>
<path d="M3747 6424 c-13 -13 -7 -24 14 -24 11 0 19 5 17 12 -5 14 -22 21 -31
12z"/>
<path d="M4310 6411 c-13 -25 -3 -51 20 -51 23 0 36 36 20 55 -17 20 -27 19
-40 -4z"/>
<path d="M4425 6381 c-3 -5 -1 -12 5 -16 12 -7 30 2 30 16 0 12 -27 12 -35 0z"/>
<path d="M4640 6375 c0 -8 7 -15 15 -15 8 0 15 7 15 15 0 8 -7 15 -15 15 -8 0
-15 -7 -15 -15z"/>
<path d="M4762 6421 c-21 -13 -11 -56 13 -56 15 0 20 7 20 29 0 31 -12 41 -33
27z"/>
<path d="M5355 6379 c-4 -6 -4 -13 -1 -16 8 -8 36 5 36 17 0 13 -27 13 -35 -1z"/>
<path d="M5595 6379 c-4 -6 -4 -13 -1 -16 8 -8 36 5 36 17 0 13 -27 13 -35 -1z"/>
<path d="M7705 6379 c-4 -6 -4 -13 -1 -16 8 -8 36 5 36 17 0 13 -27 13 -35 -1z"/>
<path d="M8095 6379 c-4 -6 -4 -13 -1 -16 8 -8 36 5 36 17 0 13 -27 13 -35 -1z"/>
<path d="M8477 6424 c-13 -13 -7 -24 14 -24 11 0 19 5 17 12 -5 14 -22 21 -31
12z"/>
<path d="M8840 6415 c-11 -13 -9 -15 15 -15 16 0 25 5 23 12 -7 19 -24 20 -38
3z"/>
<path d="M9157 6424 c-13 -13 -7 -24 14 -24 11 0 19 5 17 12 -5 14 -22 21 -31
12z"/>
<path d="M12187 6424 c-13 -13 -7 -24 14 -24 11 0 19 5 17 12 -5 14 -22 21
-31 12z"/>
<path d="M12580 6415 c-17 -21 -8 -50 17 -53 26 -4 41 31 23 53 -16 19 -24 19
-40 0z"/>
<path d="M12890 6415 c-11 -13 -9 -15 15 -15 16 0 25 5 23 12 -7 19 -24 20
-38 3z"/>
<path d="M13343 6423 c-18 -7 -16 -52 3 -60 8 -3 22 1 31 9 12 12 13 20 4 37
-12 21 -17 23 -38 14z"/>
<path d="M13473 6423 c-7 -3 -13 -18 -13 -35 0 -25 3 -29 23 -26 15 2 23 11
25 29 3 27 -12 40 -35 32z"/>
<path d="M13717 6423 c-14 -13 -6 -23 19 -23 22 0 25 2 14 15 -14 16 -23 19
-33 8z"/>
<path d="M177 6370 c10 -37 83 -23 83 16 0 2 -20 4 -44 4 -39 0 -44 -2 -39
-20z"/>
<path d="M380 6385 c0 -8 7 -15 15 -15 8 0 15 7 15 15 0 8 -7 15 -15 15 -8 0
-15 -7 -15 -15z"/>
<path d="M460 6382 c0 -11 -3 -28 -6 -37 -5 -13 -2 -16 17 -13 19 2 24 9 24
33 0 20 -5 31 -17 33 -12 2 -18 -3 -18 -16z"/>
<path d="M180 6050 c0 -5 5 -10 10 -10 6 0 10 5 10 10 0 6 -4 10 -10 10 -5 0
-10 -4 -10 -10z"/>
<path d="M210 6005 c0 -8 5 -15 10 -15 6 0 10 7 10 15 0 8 -4 15 -10 15 -5 0
-10 -7 -10 -15z"/>
<path d="M550 6000 c0 -5 5 -10 10 -10 6 0 10 5 10 10 0 6 -4 10 -10 10 -5 0
-10 -4 -10 -10z"/>
<path d="M690 6015 c0 -16 6 -25 15 -25 21 0 31 30 14 41 -23 14 -29 11 -29
-16z"/>
<path d="M755 6030 c-3 -5 1 -10 10 -10 9 0 13 5 10 10 -3 6 -8 10 -10 10 -2
0 -7 -4 -10 -10z"/>
<path d="M893 6024 c-8 -21 13 -42 28 -27 13 13 5 43 -11 43 -6 0 -13 -7 -17
-16z"/>
<path d="M2878 5956 c-8 -20 -8 -32 0 -52 16 -34 32 -21 32 26 0 47 -16 60
-32 26z"/>
<path d="M2997 5976 c-6 -15 1 -26 15 -26 11 0 10 27 -1 34 -5 3 -11 0 -14 -8z"/>
<path d="M3094 5906 c-4 -10 -2 -22 4 -28 8 -8 13 -7 18 6 4 10 2 22 -4 28 -8
8 -13 7 -18 -6z"/>
<path d="M7335 5968 c-9 -23 -2 -83 10 -83 14 0 19 75 6 88 -7 7 -12 5 -16 -5z"/>
<path d="M380 5710 c0 -13 5 -20 13 -17 6 2 12 10 12 17 0 7 -6 15 -12 18 -8
2 -13 -5 -13 -18z"/>
<path d="M455 5690 c-3 -5 1 -10 9 -10 9 0 16 5 16 10 0 6 -4 10 -9 10 -6 0
-13 -4 -16 -10z"/>
<path d="M667 5694 c-14 -14 -7 -35 11 -32 9 2 17 10 17 17 0 16 -18 25 -28
15z"/>
<path d="M815 5690 c-8 -14 3 -30 21 -30 8 0 14 9 14 20 0 21 -24 28 -35 10z"/>
<path d="M184 5396 c-15 -7 -21 -18 -20 -38 1 -15 5 -28 10 -28 5 0 15 -8 22
-17 12 -17 13 -17 19 0 4 9 13 17 19 17 7 0 13 13 13 28 0 34 -31 52 -63 38z
m44 -39 c4 -20 -25 -34 -40 -19 -15 15 -1 44 19 40 10 -2 19 -11 21 -21z"/>
<path d="M200 5360 c0 -5 5 -10 11 -10 5 0 7 5 4 10 -3 6 -8 10 -11 10 -2 0
-4 -4 -4 -10z"/>
<path d="M1012 5358 c-13 -13 -4 -38 14 -38 15 0 19 35 6 44 -5 3 -14 0 -20
-6z"/>
<path d="M1085 5360 c-3 -5 1 -10 10 -10 9 0 13 5 10 10 -3 6 -8 10 -10 10 -2
0 -7 -4 -10 -10z"/>
<path d="M464 5356 c-6 -17 2 -36 17 -36 12 0 12 37 -1 45 -6 3 -13 -1 -16 -9z"/>
<path d="M686 5363 c-12 -12 -6 -43 9 -43 8 0 15 9 15 19 0 21 -13 34 -24 24z"/>
<path d="M880 5330 c0 -5 5 -10 10 -10 6 0 10 5 10 10 0 6 -4 10 -10 10 -5 0
-10 -4 -10 -10z"/>
<path d="M3085 4340 c-11 -17 5 -32 21 -19 8 6 14 15 14 20 0 12 -27 11 -35
-1z"/>
<path d="M3975 3880 c3 -5 8 -10 11 -10 2 0 4 5 4 10 0 6 -5 10 -11 10 -5 0
-7 -4 -4 -10z"/>
<path d="M3895 3871 c-3 -5 -1 -12 5 -16 5 -3 10 1 10 9 0 18 -6 21 -15 7z"/>
<path d="M3976 3851 c-4 -5 -2 -12 3 -15 5 -4 12 -2 15 3 4 5 2 12 -3 15 -5 4
-12 2 -15 -3z"/>
<path d="M4050 3866 c0 -29 11 -39 35 -30 24 10 15 48 -12 52 -19 3 -23 -1
-23 -22z"/>
<path d="M4150 3880 c0 -5 7 -10 15 -10 8 0 15 5 15 10 0 6 -7 10 -15 10 -8 0
-15 -4 -15 -10z"/>
<path d="M4240 3864 c0 -8 5 -12 10 -9 6 4 8 11 5 16 -9 14 -15 11 -15 -7z"/>
<path d="M4376 3873 c-8 -19 17 -48 33 -39 6 4 11 18 11 32 0 28 -34 34 -44 7z"/>
<path d="M4480 3880 c0 -5 5 -10 10 -10 6 0 10 5 10 10 0 6 -4 10 -10 10 -5 0
-10 -4 -10 -10z"/>
<path d="M4593 3874 c-7 -19 20 -49 36 -40 6 4 11 18 11 32 0 17 -5 24 -20 24
-11 0 -23 -7 -27 -16z"/>
<path d="M5163 3874 c-7 -19 20 -49 36 -40 6 4 11 18 11 32 0 17 -5 24 -20 24
-11 0 -23 -7 -27 -16z"/>
<path d="M5661 3864 c0 -11 3 -14 6 -6 3 7 2 16 -1 19 -3 4 -6 -2 -5 -13z"/>
<path d="M6170 3866 c0 -32 18 -43 37 -23 20 20 10 47 -17 47 -15 0 -20 -7
-20 -24z"/>
<path d="M6665 3880 c4 -6 11 -8 16 -5 14 9 11 15 -7 15 -8 0 -12 -5 -9 -10z"/>
<path d="M6666 3851 c-4 -5 -2 -12 3 -15 5 -4 12 -2 15 3 4 5 2 12 -3 15 -5 4
-12 2 -15 -3z"/>
<path d="M6750 3864 c0 -8 5 -12 10 -9 6 3 10 10 10 16 0 5 -4 9 -10 9 -5 0
-10 -7 -10 -16z"/>
<path d="M7024 3875 c-9 -23 4 -47 23 -43 11 2 19 14 21 31 3 22 -1 27 -18 27
-11 0 -23 -7 -26 -15z"/>
<path d="M7330 3866 c0 -32 18 -43 37 -23 20 20 10 47 -17 47 -15 0 -20 -7
-20 -24z"/>
<path d="M7510 3864 c0 -8 5 -12 10 -9 6 4 8 11 5 16 -9 14 -15 11 -15 -7z"/>
<path d="M8100 3880 c0 -5 7 -10 15 -10 8 0 15 5 15 10 0 6 -7 10 -15 10 -8 0
-15 -4 -15 -10z"/>
<path d="M8280 3880 c0 -5 5 -10 10 -10 6 0 10 5 10 10 0 6 -4 10 -10 10 -5 0
-10 -4 -10 -10z"/>
<path d="M8490 3864 c0 -8 5 -12 10 -9 6 4 8 11 5 16 -9 14 -15 11 -15 -7z"/>
<path d="M4695 3307 c-4 -10 -5 -21 -1 -24 10 -10 18 4 13 24 -4 17 -4 17 -12
0z"/>
<path d="M6694 3289 c-10 -17 13 -36 27 -22 12 12 4 33 -11 33 -5 0 -12 -5
-16 -11z"/>
<path d="M15087 3306 c-3 -8 -2 -18 3 -21 13 -8 20 9 11 24 -6 10 -10 9 -14
-3z"/>
<path d="M6487 3294 c-9 -10 4 -34 19 -34 8 0 14 9 14 20 0 19 -19 27 -33 14z"/>
<path d="M7115 3290 c-8 -14 3 -30 21 -30 8 0 14 9 14 20 0 21 -24 28 -35 10z"/>
<path d="M9115 3290 c-8 -14 3 -30 21 -30 8 0 14 9 14 20 0 21 -24 28 -35 10z"/>
<path d="M10980 3280 c0 -11 7 -20 15 -20 8 0 15 9 15 20 0 11 -7 20 -15 20
-8 0 -15 -9 -15 -20z"/>
<path d="M15224 3289 c-10 -17 13 -36 27 -22 12 12 4 33 -11 33 -5 0 -12 -5
-16 -11z"/>
<path d="M9400 2670 c0 -5 7 -10 15 -10 8 0 15 5 15 10 0 6 -7 10 -15 10 -8 0
-15 -4 -15 -10z"/>
<path d="M9770 2640 c0 -5 4 -10 9 -10 6 0 13 5 16 10 3 6 -1 10 -9 10 -9 0
-16 -4 -16 -10z"/>
</g>
</svg>
